<?xml version="1.0" encoding="utf-8"?>
<!-- Generator: Adobe Illustrator 16.0.4, SVG Export Plug-In . SVG Version: 6.00 Build 0)  -->
<!DOCTYPE svg PUBLIC "-//W3C//DTD SVG 1.1//EN" "http://www.w3.org/Graphics/SVG/1.1/DTD/svg11.dtd">
<svg version="1.1" id="Calque_1" xmlns="http://www.w3.org/2000/svg" xmlns:xlink="http://www.w3.org/1999/xlink" x="0px" y="0px"
	 width="640px" height="480px" viewBox="0 0 640 480" enable-background="new 0 0 640 480" xml:space="preserve">
<g>
	<g>
		<g>
			<defs>
				<rect id="SVGID_1_" x="103" y="104" width="434" height="272"/>
			</defs>
			<clipPath id="SVGID_2_">
				<use xlink:href="#SVGID_1_"  overflow="visible"/>
			</clipPath>
			<path clip-path="url(#SVGID_2_)" fill="#FFFFFF" d="M61.5,71.5h559.2v782.92H61.5V71.5z"/>
		</g>
	</g>
	<path fill="none" stroke="#000000" stroke-miterlimit="10" stroke-dasharray="4,4" d="M213,115h225c2.762,0,5,2.239,5,5v240
		c0,2.762-2.238,5-5,5H213c-2.761,0-5-2.238-5-5l0,0V120C208,117.239,210.239,115,213,115L213,115z"/>
	<path d="M213.449,121.46c0,1.162,0.293,2.077,0.879,2.744c0.586,0.664,1.392,0.996,2.416,0.996c0.828,0,1.506-0.246,2.036-0.737
		c0.53-0.491,0.859-1.129,0.988-1.914h-1.494c-0.099,0.371-0.223,0.649-0.373,0.835c-0.271,0.345-0.664,0.518-1.18,0.518
		c-0.503,0-0.918-0.201-1.244-0.603c-0.327-0.402-0.49-1.006-0.49-1.814c0-0.807,0.155-1.432,0.464-1.873
		c0.31-0.441,0.732-0.662,1.268-0.662c0.526,0,0.923,0.156,1.191,0.469c0.149,0.176,0.272,0.437,0.368,0.781h1.504
		c-0.022-0.449-0.187-0.896-0.493-1.343c-0.554-0.794-1.43-1.191-2.628-1.191c-0.896,0-1.633,0.296-2.212,0.889
		C213.783,119.235,213.449,120.204,213.449,121.46L213.449,121.46L213.449,121.46z M223.259,124.014c-0.407,0-0.72-0.145-0.94-0.434
		c-0.22-0.289-0.33-0.7-0.33-1.233c0-0.533,0.11-0.943,0.33-1.231c0.22-0.288,0.533-0.432,0.94-0.432
		c0.407,0,0.719,0.144,0.938,0.432c0.219,0.288,0.327,0.698,0.327,1.231c0,0.533-0.109,0.944-0.327,1.233
		C223.978,123.869,223.666,124.014,223.259,124.014L223.259,124.014L223.259,124.014z M225.983,122.346
		c0-0.768-0.225-1.433-0.674-1.995c-0.449-0.563-1.131-0.844-2.046-0.844s-1.597,0.281-2.046,0.844
		c-0.449,0.562-0.674,1.228-0.674,1.995c0,0.781,0.225,1.448,0.674,2.003c0.449,0.554,1.131,0.832,2.046,0.832
		s1.597-0.277,2.046-0.832C225.759,123.794,225.983,123.127,225.983,122.346L225.983,122.346L225.983,122.346z M229.927,119.551
		c-0.438,0-0.799,0.107-1.084,0.322c-0.159,0.121-0.328,0.317-0.506,0.591v-0.776h-1.348V125h1.392v-2.881
		c0-0.329,0.045-0.599,0.136-0.811c0.174-0.4,0.496-0.601,0.964-0.601c0.381,0,0.64,0.137,0.776,0.41
		c0.074,0.15,0.111,0.365,0.111,0.645V125h1.426v-3.584c0-0.667-0.174-1.145-0.522-1.433
		C230.923,119.695,230.475,119.551,229.927,119.551L229.927,119.551L229.927,119.551z M233.283,120.718v3.276
		c0,0.332,0.078,0.578,0.234,0.737c0.241,0.251,0.69,0.365,1.348,0.342l0.659-0.024v-1.04c-0.045,0.003-0.092,0.006-0.139,0.007
		c-0.047,0.001-0.092,0.002-0.134,0.002c-0.283,0-0.453-0.027-0.508-0.081c-0.055-0.054-0.083-0.189-0.083-0.408v-2.812h0.864
		v-0.991h-0.864v-1.484h-1.377v1.484h-0.742v0.991L233.283,120.718L233.283,120.718z M238.635,120.684
		c0.329,0,0.604,0.096,0.826,0.287c0.222,0.191,0.345,0.472,0.371,0.841h-2.397c0.05-0.347,0.174-0.621,0.371-0.824
		C238.003,120.785,238.278,120.684,238.635,120.684L238.635,120.684L238.635,120.684z M238.634,119.536
		c-0.78,0-1.415,0.246-1.903,0.738c-0.489,0.492-0.733,1.199-0.733,2.121c0,0.984,0.271,1.694,0.812,2.131s1.167,0.655,1.875,0.655
		c0.858,0,1.525-0.259,2.002-0.776c0.307-0.325,0.479-0.646,0.516-0.962h-1.421c-0.083,0.156-0.178,0.278-0.286,0.366
		c-0.198,0.163-0.456,0.244-0.773,0.244c-0.299,0-0.555-0.066-0.767-0.2c-0.35-0.215-0.535-0.589-0.557-1.123h3.876
		c0.007-0.459-0.008-0.812-0.046-1.056c-0.065-0.417-0.206-0.784-0.424-1.101c-0.242-0.358-0.548-0.621-0.919-0.787
		C239.515,119.619,239.098,119.536,238.634,119.536L238.634,119.536L238.634,119.536z M243.139,125l0.925-1.6l0.916,1.6h1.733
		l-1.816-2.72l1.748-2.593h-1.655l-0.869,1.542l-0.889-1.542h-1.704l1.738,2.617L241.45,125H243.139L243.139,125z M247.736,120.718
		v3.276c0,0.332,0.078,0.578,0.234,0.737c0.241,0.251,0.69,0.365,1.348,0.342l0.659-0.024v-1.04
		c-0.045,0.003-0.092,0.006-0.139,0.007s-0.092,0.002-0.134,0.002c-0.283,0-0.453-0.027-0.508-0.081
		c-0.055-0.054-0.083-0.189-0.083-0.408v-2.812h0.864v-0.991h-0.864v-1.484h-1.377v1.484h-0.742v0.991L247.736,120.718
		L247.736,120.718z M253.088,120.684c0.329,0,0.604,0.096,0.826,0.287c0.222,0.191,0.345,0.472,0.371,0.841h-2.397
		c0.05-0.347,0.174-0.621,0.371-0.824C252.456,120.785,252.731,120.684,253.088,120.684L253.088,120.684L253.088,120.684z
		 M253.087,119.536c-0.78,0-1.415,0.246-1.903,0.738c-0.489,0.492-0.733,1.199-0.733,2.121c0,0.984,0.271,1.694,0.812,2.131
		s1.167,0.655,1.875,0.655c0.858,0,1.525-0.259,2.002-0.776c0.307-0.325,0.479-0.646,0.516-0.962h-1.421
		c-0.083,0.156-0.178,0.278-0.286,0.366c-0.198,0.163-0.456,0.244-0.773,0.244c-0.299,0-0.555-0.066-0.767-0.2
		c-0.35-0.215-0.535-0.589-0.557-1.123h3.876c0.007-0.459-0.008-0.812-0.046-1.056c-0.065-0.417-0.206-0.784-0.424-1.101
		c-0.242-0.358-0.548-0.621-0.919-0.787C253.968,119.619,253.551,119.536,253.087,119.536L253.087,119.536L253.087,119.536z"/>
	<path fill="#FFFFFF" d="M181,303.454c0-6.45-0.755-7.249-6.268-13.634l-0.058-0.064c-5.542-6.451-5.6-6.451-11.288-6.451
		c-7.573,0-41.814,0-41.814,0V351.4H181V303.454L181,303.454z"/>
	<path fill="none" stroke="#000000" stroke-linecap="round" stroke-linejoin="round" stroke-miterlimit="10" d="M181,303.454
		c0-6.45-0.755-7.249-6.268-13.634l-0.058-0.064c-5.542-6.451-5.6-6.451-11.288-6.451c-7.573,0-41.814,0-41.814,0V351.4H181V303.454
		L181,303.454z M181,303.122c0-6.118-0.058-6.118-11.926-6.118l0,0c0-13.633,0-13.699-5.339-13.699"/>
	<path fill="#FFFFFF" d="M177.286,298.502c0-6.451-0.755-7.249-6.268-13.633l-0.058-0.066c-5.542-6.449-5.6-6.449-11.288-6.449
		c-7.574,0-41.815,0-41.815,0v68.095h59.429V298.502L177.286,298.502z"/>
	<path fill="none" stroke="#000000" stroke-linecap="round" stroke-linejoin="round" stroke-miterlimit="10" d="M177.286,298.502
		c0-6.451-0.755-7.249-6.268-13.633l-0.058-0.066c-5.542-6.449-5.6-6.449-11.288-6.449c-7.574,0-41.815,0-41.815,0v68.095h59.429
		V298.502L177.286,298.502z M177.286,298.17c0-6.119-0.058-6.119-11.926-6.119l0,0c0-13.632,0-13.697-5.339-13.697"/>
	<path fill="#F95F9D" d="M173.571,293.55c0-6.45-0.754-7.249-6.268-13.633l-0.059-0.065c-5.542-6.451-5.6-6.451-11.288-6.451
		c-7.574,0-41.814,0-41.814,0v68.096h59.428L173.571,293.55L173.571,293.55z"/>
	<path fill="none" stroke="#000000" stroke-linecap="round" stroke-linejoin="round" stroke-miterlimit="10" d="M173.571,293.55
		c0-6.45-0.754-7.249-6.268-13.633l-0.059-0.065c-5.542-6.451-5.6-6.451-11.288-6.451c-7.574,0-41.814,0-41.814,0v68.096h59.428
		L173.571,293.55L173.571,293.55z M173.571,293.217c0-6.117-0.058-6.117-11.926-6.117l0,0c0-13.633,0-13.699-5.34-13.699"/>
	<path d="M136.66,297.993l1.368,2.454h1.826l-2.339-3.727l2.202-3.472h-1.738l-1.319,2.344l-1.283-2.344h-1.797l2.202,3.53
		l-2.314,3.667h1.748L136.66,297.993L136.66,297.993z M144.209,298.909l-1.311-5.659h-2.188v7.197h1.401v-4.868
		c0-0.14-0.002-0.336-0.005-0.588c-0.003-0.253-0.005-0.447-0.005-0.585l1.354,6.041h1.461l1.364-6.041
		c0,0.138-0.002,0.332-0.005,0.585c-0.003,0.252-0.005,0.448-0.005,0.588v4.868h1.401v-7.197h-2.164L144.209,298.909
		L144.209,298.909z M149.065,300.447h5.098v-1.294h-3.594v-5.903h-1.504V300.447L149.065,300.447z"/>
	<path d="M122.707,310.7v-4.957h1.517c0.69,0,1.191,0.222,1.502,0.664c0.311,0.441,0.466,1.062,0.466,1.862
		c0,0.209-0.021,0.435-0.064,0.678c-0.075,0.407-0.196,0.741-0.365,1.002c-0.212,0.325-0.484,0.545-0.816,0.659
		c-0.187,0.062-0.424,0.092-0.713,0.092H122.707L122.707,310.7z M121.823,311.447h2.571c1.093,0,1.863-0.489,2.312-1.469
		c0.254-0.554,0.382-1.173,0.382-1.857c0-0.888-0.216-1.616-0.646-2.186c-0.483-0.63-1.162-0.943-2.038-0.943h-2.58L121.823,311.447
		L121.823,311.447z M130.03,310.934c-0.472,0-0.817-0.167-1.034-0.501c-0.217-0.333-0.326-0.75-0.326-1.251
		c0-0.521,0.108-0.965,0.326-1.334c0.217-0.368,0.565-0.553,1.043-0.553c0.539,0,0.918,0.217,1.138,0.649
		c0.139,0.274,0.209,0.632,0.209,1.07c0,0.485-0.097,0.928-0.289,1.323C130.904,310.735,130.548,310.934,130.03,310.934
		L130.03,310.934L130.03,310.934z M130.061,306.604c-0.672,0-1.208,0.234-1.606,0.703s-0.598,1.099-0.598,1.889
		c0,0.736,0.189,1.324,0.567,1.763s0.889,0.656,1.532,0.656c0.771,0,1.34-0.247,1.706-0.741c0.367-0.495,0.55-1.121,0.55-1.88
		c0-0.784-0.208-1.379-0.624-1.782C131.172,306.807,130.663,306.604,130.061,306.604L130.061,306.604L130.061,306.604z
		 M134.998,306.604c-0.622,0-1.133,0.23-1.534,0.69c-0.402,0.46-0.602,1.104-0.602,1.929c0,0.675,0.183,1.236,0.549,1.687
		c0.366,0.45,0.857,0.675,1.472,0.675c0.547,0,0.998-0.145,1.349-0.433c0.352-0.289,0.571-0.745,0.659-1.369h-0.769
		c-0.073,0.347-0.206,0.621-0.398,0.819c-0.192,0.2-0.452,0.301-0.78,0.301c-0.428,0-0.741-0.16-0.94-0.482
		c-0.2-0.322-0.299-0.719-0.299-1.188c0-0.469,0.07-0.861,0.211-1.182c0.217-0.491,0.577-0.737,1.081-0.737
		c0.369,0,0.637,0.097,0.804,0.288s0.274,0.434,0.321,0.724h0.769c-0.068-0.63-0.268-1.074-0.6-1.332
		S135.528,306.604,134.998,306.604L134.998,306.604L134.998,306.604z M137.666,306.741v3.199c0,0.4,0.064,0.722,0.194,0.962
		c0.238,0.447,0.687,0.673,1.345,0.673c0.423,0,0.782-0.123,1.078-0.369c0.149-0.123,0.274-0.274,0.375-0.453l-0.009,0.694h0.747
		v-4.706h-0.791v2.312c0,0.46-0.053,0.821-0.159,1.085c-0.194,0.492-0.559,0.738-1.096,0.738c-0.374,0-0.629-0.141-0.766-0.422
		c-0.074-0.152-0.111-0.349-0.111-0.589v-3.124H137.666L137.666,306.741z M142.688,311.447h0.791v-2.496
		c0-0.606,0.122-1.025,0.367-1.257c0.245-0.232,0.517-0.348,0.815-0.348c0.328,0,0.552,0.109,0.672,0.329
		c0.076,0.146,0.114,0.38,0.114,0.699v3.071h0.804v-2.737c0-0.486,0.112-0.834,0.336-1.042s0.492-0.312,0.802-0.312
		c0.226,0,0.417,0.059,0.573,0.176c0.156,0.117,0.235,0.332,0.235,0.646v3.271h0.822v-3.133c0-0.416-0.062-0.747-0.185-0.993
		c-0.229-0.457-0.659-0.687-1.292-0.687c-0.296,0-0.562,0.062-0.8,0.184c-0.237,0.121-0.444,0.308-0.62,0.56
		c-0.105-0.205-0.223-0.36-0.352-0.466c-0.229-0.186-0.53-0.276-0.905-0.276c-0.332,0-0.627,0.089-0.888,0.269
		c-0.152,0.104-0.323,0.273-0.51,0.506v-0.668h-0.782v4.705H142.688z M152.127,306.636c-0.658,0-1.191,0.235-1.599,0.707
		c-0.408,0.473-0.611,1.086-0.611,1.842c0,0.769,0.202,1.364,0.607,1.791c0.405,0.427,0.898,0.64,1.48,0.64
		c0.238,0,0.452-0.023,0.641-0.07c0.352-0.082,0.647-0.24,0.885-0.475c0.143-0.136,0.271-0.309,0.387-0.521
		c0.116-0.212,0.184-0.405,0.205-0.578h-0.778c-0.057,0.209-0.154,0.395-0.291,0.553c-0.244,0.273-0.571,0.41-0.981,0.41
		c-0.438,0-0.763-0.145-0.972-0.435c-0.209-0.289-0.321-0.673-0.335-1.152h3.423c0-0.475-0.023-0.819-0.07-1.037
		c-0.052-0.315-0.157-0.593-0.314-0.829c-0.163-0.249-0.4-0.452-0.712-0.608C152.781,306.714,152.459,306.636,152.127,306.636
		L152.127,306.636L152.127,306.636z M150.783,308.719c0.014-0.403,0.144-0.736,0.388-1c0.244-0.262,0.546-0.394,0.906-0.394
		c0.502,0,0.861,0.189,1.076,0.571c0.116,0.204,0.19,0.479,0.223,0.821L150.783,308.719L150.783,308.719z M155.191,311.447h0.791
		v-2.465c0-0.309,0.02-0.545,0.059-0.71c0.04-0.165,0.125-0.326,0.257-0.481c0.164-0.193,0.354-0.322,0.571-0.387
		c0.12-0.038,0.274-0.058,0.461-0.058c0.369,0,0.624,0.146,0.765,0.439c0.085,0.176,0.127,0.407,0.127,0.694v2.966h0.804v-3.02
		c0-0.475-0.064-0.84-0.193-1.095c-0.235-0.466-0.686-0.698-1.354-0.698c-0.305,0-0.582,0.061-0.831,0.181
		c-0.25,0.119-0.485,0.317-0.708,0.594v-0.668h-0.751v4.707H155.191z M160.354,306.741h-0.637v0.646h0.637v3.116
		c0,0.302,0.066,0.547,0.198,0.736c0.132,0.188,0.382,0.282,0.751,0.282c0.114,0,0.22-0.006,0.318-0.018
		c0.098-0.012,0.192-0.031,0.284-0.058v-0.628c-0.059,0.008-0.11,0.013-0.154,0.015s-0.085,0.003-0.123,0.003
		c-0.144,0-0.246-0.017-0.308-0.049c-0.112-0.057-0.167-0.165-0.167-0.329v-3.072h0.751v-0.646h-0.751v-1.314h-0.8L160.354,306.741
		L160.354,306.741z M162.407,309.971c0.021,0.47,0.179,0.862,0.474,1.182c0.295,0.316,0.797,0.477,1.506,0.477
		c0.659,0,1.149-0.152,1.471-0.457c0.322-0.305,0.483-0.667,0.483-1.086c0-0.434-0.154-0.751-0.461-0.953
		c-0.197-0.129-0.585-0.263-1.165-0.399l-0.533-0.127c-0.233-0.057-0.409-0.12-0.528-0.193c-0.207-0.122-0.31-0.286-0.31-0.49
		c0-0.187,0.079-0.337,0.236-0.451c0.158-0.112,0.389-0.171,0.695-0.171c0.458,0,0.781,0.104,0.967,0.312
		c0.114,0.146,0.179,0.308,0.194,0.484h0.747c0.006-0.305-0.091-0.589-0.29-0.853c-0.317-0.416-0.835-0.624-1.554-0.624
		c-0.549,0-0.986,0.138-1.312,0.413c-0.326,0.274-0.487,0.636-0.487,1.081c0,0.378,0.172,0.674,0.518,0.888
		c0.193,0.123,0.494,0.234,0.902,0.334l0.639,0.158c0.342,0.085,0.572,0.159,0.688,0.224c0.182,0.105,0.272,0.261,0.272,0.462
		c0,0.268-0.114,0.464-0.341,0.592c-0.227,0.128-0.49,0.19-0.789,0.19c-0.502,0-0.855-0.128-1.059-0.383
		c-0.111-0.141-0.178-0.343-0.202-0.606h-0.761V309.971z"/>
	<path d="M127.364,317.636c-0.658,0-1.191,0.235-1.599,0.707c-0.408,0.473-0.611,1.086-0.611,1.842c0,0.769,0.202,1.364,0.607,1.791
		c0.405,0.427,0.898,0.64,1.48,0.64c0.238,0,0.452-0.023,0.641-0.07c0.352-0.082,0.647-0.24,0.885-0.475
		c0.143-0.136,0.271-0.309,0.387-0.521c0.116-0.212,0.184-0.405,0.205-0.578h-0.778c-0.057,0.209-0.154,0.395-0.291,0.553
		c-0.244,0.273-0.571,0.41-0.981,0.41c-0.438,0-0.763-0.145-0.972-0.435c-0.209-0.289-0.321-0.673-0.335-1.152h3.423
		c0-0.475-0.023-0.819-0.07-1.037c-0.052-0.315-0.157-0.593-0.314-0.829c-0.163-0.249-0.4-0.452-0.712-0.608
		C128.018,317.714,127.696,317.636,127.364,317.636L127.364,317.636L127.364,317.636z M126.02,319.719
		c0.014-0.403,0.144-0.736,0.388-1c0.244-0.262,0.546-0.394,0.906-0.394c0.502,0,0.861,0.189,1.076,0.571
		c0.116,0.204,0.19,0.479,0.223,0.821L126.02,319.719L126.02,319.719z M130.428,322.447h0.791v-2.465c0-0.309,0.02-0.545,0.059-0.71
		c0.04-0.165,0.125-0.326,0.257-0.481c0.164-0.193,0.354-0.322,0.571-0.387c0.12-0.038,0.273-0.058,0.461-0.058
		c0.369,0,0.624,0.146,0.765,0.439c0.084,0.176,0.127,0.407,0.127,0.694v2.966h0.804v-3.02c0-0.475-0.065-0.84-0.193-1.095
		c-0.235-0.466-0.686-0.698-1.354-0.698c-0.305,0-0.582,0.061-0.831,0.181c-0.249,0.119-0.485,0.317-0.708,0.594v-0.668h-0.751
		v4.707H130.428z M139.875,317.636c-0.658,0-1.191,0.235-1.599,0.707c-0.408,0.473-0.611,1.086-0.611,1.842
		c0,0.769,0.202,1.364,0.607,1.791s0.898,0.64,1.48,0.64c0.238,0,0.452-0.023,0.641-0.07c0.352-0.082,0.647-0.24,0.885-0.475
		c0.143-0.136,0.271-0.309,0.387-0.521c0.116-0.212,0.184-0.405,0.205-0.578h-0.778c-0.057,0.209-0.154,0.395-0.291,0.553
		c-0.244,0.273-0.571,0.41-0.981,0.41c-0.438,0-0.763-0.145-0.972-0.435c-0.209-0.289-0.321-0.673-0.335-1.152h3.423
		c0-0.475-0.023-0.819-0.07-1.037c-0.052-0.315-0.157-0.593-0.314-0.829c-0.163-0.249-0.4-0.452-0.712-0.608
		C140.529,317.714,140.207,317.636,139.875,317.636L139.875,317.636L139.875,317.636z M138.531,319.719
		c0.014-0.403,0.144-0.736,0.388-1c0.244-0.262,0.546-0.394,0.906-0.394c0.502,0,0.861,0.189,1.076,0.571
		c0.116,0.204,0.19,0.479,0.223,0.821L138.531,319.719L138.531,319.719z M142.939,322.447h0.791v-2.465
		c0-0.309,0.02-0.545,0.059-0.71c0.04-0.165,0.125-0.326,0.257-0.481c0.164-0.193,0.354-0.322,0.571-0.387
		c0.12-0.038,0.274-0.058,0.461-0.058c0.369,0,0.624,0.146,0.765,0.439c0.085,0.176,0.127,0.407,0.127,0.694v2.966h0.804v-3.02
		c0-0.475-0.064-0.84-0.193-1.095c-0.235-0.466-0.686-0.698-1.354-0.698c-0.305,0-0.582,0.061-0.831,0.181
		c-0.25,0.119-0.485,0.317-0.708,0.594v-0.668h-0.751v4.707H142.939z M148.103,317.741h-0.637v0.646h0.637v3.116
		c0,0.302,0.066,0.547,0.198,0.736c0.132,0.188,0.382,0.282,0.751,0.282c0.114,0,0.22-0.006,0.318-0.018
		c0.098-0.012,0.192-0.031,0.284-0.058v-0.628c-0.059,0.008-0.11,0.013-0.154,0.015s-0.085,0.003-0.123,0.003
		c-0.144,0-0.246-0.017-0.308-0.049c-0.112-0.057-0.167-0.165-0.167-0.329v-3.072h0.751v-0.646h-0.751v-1.314h-0.8L148.103,317.741
		L148.103,317.741z M150.467,322.447h0.791v-2.707c0-0.334,0.106-0.629,0.321-0.885c0.213-0.258,0.52-0.386,0.918-0.386
		c0.046,0,0.09,0.001,0.129,0.004s0.083,0.01,0.13,0.019v-0.835c-0.085-0.009-0.145-0.016-0.18-0.019
		c-0.035-0.003-0.061-0.004-0.075-0.004c-0.314,0-0.591,0.113-0.831,0.341c-0.24,0.228-0.391,0.419-0.453,0.577v-0.812h-0.751
		L150.467,322.447L150.467,322.447z M155.384,317.636c-0.658,0-1.191,0.235-1.599,0.707c-0.408,0.473-0.611,1.086-0.611,1.842
		c0,0.769,0.202,1.364,0.607,1.791c0.405,0.427,0.898,0.64,1.48,0.64c0.238,0,0.452-0.023,0.641-0.07
		c0.352-0.082,0.647-0.24,0.885-0.475c0.143-0.136,0.271-0.309,0.387-0.521c0.116-0.212,0.184-0.405,0.205-0.578h-0.778
		c-0.057,0.209-0.154,0.395-0.291,0.553c-0.244,0.273-0.571,0.41-0.981,0.41c-0.438,0-0.763-0.145-0.972-0.435
		c-0.209-0.289-0.321-0.673-0.335-1.152h3.423c0-0.475-0.023-0.819-0.07-1.037c-0.052-0.315-0.157-0.593-0.314-0.829
		c-0.163-0.249-0.4-0.452-0.712-0.608C156.037,317.714,155.715,317.636,155.384,317.636L155.384,317.636L155.384,317.636z
		 M154.04,319.719c0.014-0.403,0.144-0.736,0.388-1c0.244-0.262,0.546-0.394,0.906-0.394c0.502,0,0.861,0.189,1.076,0.571
		c0.116,0.204,0.19,0.479,0.223,0.821L154.04,319.719L154.04,319.719z M155.34,315.847l-0.804,1.271h0.606l1.173-1.271H155.34
		L155.34,315.847z M160.389,317.636c-0.658,0-1.191,0.235-1.599,0.707c-0.408,0.473-0.611,1.086-0.611,1.842
		c0,0.769,0.202,1.364,0.607,1.791c0.405,0.427,0.898,0.64,1.48,0.64c0.238,0,0.452-0.023,0.641-0.07
		c0.352-0.082,0.647-0.24,0.885-0.475c0.143-0.136,0.271-0.309,0.387-0.521c0.116-0.212,0.184-0.405,0.205-0.578h-0.778
		c-0.057,0.209-0.154,0.395-0.291,0.553c-0.244,0.273-0.571,0.41-0.981,0.41c-0.438,0-0.763-0.145-0.972-0.435
		c-0.209-0.289-0.321-0.673-0.335-1.152h3.423c0-0.475-0.023-0.819-0.07-1.037c-0.052-0.315-0.157-0.593-0.314-0.829
		c-0.163-0.249-0.4-0.452-0.712-0.608C161.042,317.714,160.721,317.636,160.389,317.636L160.389,317.636L160.389,317.636z
		 M159.045,319.719c0.014-0.403,0.144-0.736,0.388-1c0.244-0.262,0.546-0.394,0.906-0.394c0.502,0,0.861,0.189,1.076,0.571
		c0.116,0.204,0.19,0.479,0.223,0.821L159.045,319.719L159.045,319.719z"/>
	<path fill="#F95F9D" d="M525.8,293.641c0-6.479-0.724-7.281-6.012-13.693l-0.056-0.066c-5.315-6.479-5.371-6.479-10.826-6.479
		c-7.266,0-40.106,0-40.106,0V341.8h57V293.641L525.8,293.641z"/>
	<path fill="none" stroke="#000000" stroke-linecap="round" stroke-linejoin="round" stroke-miterlimit="10" d="M525.8,293.641
		c0-6.479-0.724-7.281-6.012-13.693l-0.056-0.066c-5.315-6.479-5.371-6.479-10.826-6.479c-7.266,0-40.106,0-40.106,0V341.8h57
		V293.641L525.8,293.641z M525.8,293.307c0-6.146-0.056-6.146-11.438-6.146l0,0c0-13.693,0-13.76-5.121-13.76"/>
	<path d="M490.104,303.646l1.366,2.453h1.826l-2.339-3.726l2.202-3.472h-1.738l-1.317,2.345l-1.284-2.345h-1.798l2.202,3.529
		l-2.313,3.667h1.748L490.104,303.646L490.104,303.646z M497.651,304.562l-1.311-5.659h-2.188v7.196h1.4v-4.867
		c0-0.141-0.002-0.336-0.005-0.589c-0.004-0.252-0.005-0.446-0.005-0.584l1.354,6.04h1.462l1.363-6.04
		c0,0.138-0.002,0.332-0.005,0.584c-0.004,0.253-0.005,0.448-0.005,0.589v4.867h1.401v-7.196h-2.164L497.651,304.562
		L497.651,304.562z M502.508,306.1h5.098v-1.294h-3.594v-5.902h-1.504V306.1L502.508,306.1z"/>
	<path d="M482.457,313.602v-2.205h2.077c0.291,0,0.522,0.044,0.696,0.132c0.324,0.167,0.487,0.479,0.487,0.939
		c0,0.429-0.116,0.725-0.349,0.889c-0.233,0.163-0.548,0.245-0.946,0.245H482.457L482.457,313.602z M481.583,317.1h0.874v-2.769
		h1.935c0.349,0,0.604,0.04,0.766,0.119c0.284,0.144,0.437,0.426,0.457,0.848l0.053,1.077c0.011,0.252,0.025,0.422,0.043,0.51
		c0.019,0.088,0.041,0.159,0.07,0.215h1.071v-0.145c-0.135-0.059-0.229-0.19-0.28-0.396c-0.032-0.119-0.054-0.304-0.062-0.55
		l-0.031-0.865c-0.015-0.375-0.086-0.646-0.213-0.812c-0.128-0.167-0.316-0.302-0.568-0.404c0.287-0.148,0.511-0.347,0.67-0.593
		c0.16-0.246,0.239-0.562,0.239-0.949c0-0.74-0.298-1.25-0.894-1.524c-0.312-0.145-0.712-0.215-1.195-0.215h-2.935V317.1
		L481.583,317.1z M489.812,312.288c-0.657,0-1.189,0.235-1.599,0.707c-0.407,0.472-0.61,1.086-0.61,1.842
		c0,0.769,0.201,1.364,0.606,1.791c0.404,0.426,0.897,0.639,1.48,0.639c0.237,0,0.45-0.022,0.641-0.069
		c0.352-0.082,0.646-0.24,0.886-0.476c0.143-0.135,0.271-0.308,0.387-0.521c0.116-0.212,0.185-0.405,0.204-0.578h-0.776
		c-0.058,0.209-0.154,0.394-0.29,0.553c-0.244,0.273-0.571,0.41-0.981,0.41c-0.438,0-0.763-0.145-0.973-0.435
		c-0.209-0.289-0.321-0.674-0.336-1.152h3.424c0-0.475-0.023-0.82-0.07-1.037c-0.052-0.315-0.156-0.593-0.313-0.83
		c-0.163-0.249-0.4-0.452-0.712-0.607C490.467,312.366,490.146,312.288,489.812,312.288L489.812,312.288L489.812,312.288z
		 M488.469,314.371c0.016-0.404,0.146-0.737,0.39-1c0.243-0.262,0.546-0.395,0.905-0.395c0.502,0,0.861,0.19,1.076,0.571
		c0.116,0.205,0.19,0.479,0.223,0.822L488.469,314.371L488.469,314.371z M489.77,310.499l-0.804,1.271h0.606l1.174-1.271H489.77
		L489.77,310.499z M492.587,315.623c0.021,0.469,0.179,0.862,0.474,1.181c0.296,0.317,0.798,0.478,1.507,0.478
		c0.658,0,1.148-0.152,1.471-0.457c0.322-0.306,0.481-0.667,0.481-1.086c0-0.435-0.152-0.751-0.461-0.953
		c-0.196-0.129-0.585-0.264-1.164-0.4l-0.532-0.127c-0.232-0.056-0.408-0.12-0.528-0.192c-0.207-0.122-0.31-0.286-0.31-0.49
		c0-0.188,0.077-0.337,0.234-0.451c0.158-0.113,0.391-0.171,0.695-0.171c0.459,0,0.781,0.104,0.967,0.311
		c0.114,0.146,0.179,0.309,0.194,0.485h0.746c0.006-0.305-0.09-0.589-0.289-0.853c-0.317-0.416-0.836-0.624-1.556-0.624
		c-0.549,0-0.985,0.138-1.312,0.412c-0.326,0.275-0.487,0.637-0.487,1.081c0,0.378,0.173,0.675,0.519,0.889
		c0.193,0.123,0.495,0.233,0.901,0.334l0.64,0.158c0.343,0.085,0.571,0.158,0.688,0.224c0.183,0.104,0.273,0.26,0.273,0.462
		c0,0.267-0.114,0.464-0.342,0.591c-0.228,0.128-0.49,0.191-0.789,0.191c-0.502,0-0.855-0.128-1.06-0.383
		c-0.109-0.142-0.178-0.344-0.201-0.606h-0.76V315.623z M497.359,312.394v3.199c0,0.401,0.063,0.723,0.193,0.962
		c0.238,0.448,0.688,0.674,1.346,0.674c0.423,0,0.781-0.123,1.077-0.369c0.149-0.123,0.274-0.274,0.375-0.453l-0.008,0.693h0.746
		v-4.705h-0.791v2.312c0,0.46-0.053,0.821-0.158,1.085c-0.192,0.492-0.559,0.738-1.096,0.738c-0.373,0-0.629-0.142-0.766-0.422
		c-0.074-0.152-0.111-0.35-0.111-0.59v-3.123L497.359,312.394L497.359,312.394z M502.404,317.1h0.791v-6.455h-0.791V317.1
		L502.404,317.1z M504.54,312.394h-0.638v0.646h0.638v3.116c0,0.302,0.065,0.547,0.198,0.735c0.131,0.188,0.382,0.283,0.751,0.283
		c0.114,0,0.221-0.006,0.317-0.018c0.1-0.013,0.192-0.031,0.284-0.059v-0.628c-0.06,0.008-0.109,0.014-0.153,0.016
		c-0.045,0.002-0.086,0.003-0.123,0.003c-0.145,0-0.246-0.018-0.309-0.049c-0.111-0.057-0.167-0.165-0.167-0.329v-3.072h0.752
		v-0.646h-0.752v-1.313h-0.8L504.54,312.394L504.54,312.394z M507.488,315.85c0-0.302,0.123-0.521,0.367-0.657
		c0.145-0.082,0.359-0.143,0.646-0.181l0.479-0.062c0.146-0.019,0.295-0.047,0.446-0.088s0.276-0.094,0.373-0.154v0.636
		c0,0.486-0.221,0.836-0.66,1.049c-0.261,0.13-0.529,0.193-0.809,0.193c-0.229,0-0.426-0.064-0.593-0.197
		C507.571,316.257,507.488,316.077,507.488,315.85L507.488,315.85L507.488,315.85z M508.145,314.41
		c-0.442,0.055-0.801,0.203-1.072,0.442c-0.272,0.239-0.409,0.577-0.409,1.015c0,0.396,0.139,0.729,0.416,0.994
		c0.276,0.265,0.633,0.396,1.07,0.396c0.361,0,0.694-0.077,0.997-0.231c0.302-0.155,0.532-0.339,0.693-0.55
		c0.026,0.188,0.071,0.332,0.137,0.436c0.123,0.192,0.32,0.29,0.594,0.29c0.11,0,0.199-0.005,0.264-0.015
		c0.065-0.009,0.158-0.029,0.281-0.064v-0.585c-0.05,0.009-0.098,0.016-0.142,0.021c-0.044,0.004-0.083,0.007-0.117,0.007
		c-0.109,0-0.181-0.024-0.215-0.074c-0.032-0.05-0.05-0.115-0.05-0.197v-2.712c0-0.445-0.172-0.773-0.514-0.984
		c-0.346-0.211-0.795-0.315-1.348-0.315c-0.479,0-0.896,0.112-1.259,0.342c-0.36,0.228-0.55,0.632-0.563,1.214h0.738
		c0.028-0.244,0.093-0.429,0.188-0.552c0.172-0.225,0.465-0.336,0.877-0.336c0.356,0,0.631,0.061,0.822,0.183
		c0.19,0.122,0.287,0.318,0.287,0.589c0,0.133-0.019,0.234-0.054,0.306c-0.062,0.129-0.183,0.204-0.363,0.229L508.145,314.41
		L508.145,314.41z M512.046,312.394h-0.638v0.646h0.638v3.116c0,0.302,0.065,0.547,0.198,0.735c0.131,0.188,0.382,0.283,0.751,0.283
		c0.114,0,0.221-0.006,0.317-0.018c0.1-0.013,0.192-0.031,0.284-0.059v-0.628c-0.06,0.008-0.109,0.014-0.153,0.016
		s-0.085,0.003-0.123,0.003c-0.145,0-0.246-0.018-0.309-0.049c-0.11-0.057-0.167-0.165-0.167-0.329v-3.072h0.752v-0.646h-0.752
		v-1.313h-0.8L512.046,312.394L512.046,312.394z"/>
	<line fill="none" stroke="#000000" stroke-width="2" stroke-miterlimit="10" x1="188" y1="309.5" x2="262.1" y2="309.5"/>
	<path d="M267.1,309.5l-8-3l3,3l0,0l-3,3L267.1,309.5z"/>
	<path fill="none" stroke="#000000" stroke-width="2" stroke-miterlimit="10" d="M267.1,309.5l-8-3l3,3l0,0l-3,3L267.1,309.5z
		 M379,309.5h74.1"/>
	<path d="M458.1,309.5l-8-3l3,3l0,0l-3,3L458.1,309.5z"/>
	<path fill="none" stroke="#000000" stroke-width="2" stroke-miterlimit="10" d="M458.1,309.5l-8-3l3,3l0,0l-3,3L458.1,309.5z"/>
	<path fill="#FFFFFF" d="M277,274h91.2v68.4H277V274z"/>
	<path fill="none" stroke="#000000" stroke-linecap="round" stroke-linejoin="round" stroke-miterlimit="10" d="M277,274h91.2v68.4
		H277V274z"/>
	<path d="M300.093,301.293c0,0.374-0.095,0.647-0.286,0.82c-0.19,0.172-0.458,0.259-0.801,0.259h-1.355v-2.119h1.355
		c0.343,0,0.61,0.079,0.801,0.239C299.998,300.651,300.093,300.918,300.093,301.293L300.093,301.293L300.093,301.293z
		 M301.587,301.283c0-0.778-0.212-1.354-0.636-1.725c-0.423-0.371-0.991-0.557-1.704-0.557h-3.09v7.197h1.494v-2.588h1.499
		c0.782,0,1.384-0.177,1.805-0.527S301.587,302.133,301.587,301.283L301.587,301.283L301.587,301.283z M305.571,300.751
		c-0.417,0-0.755,0.108-1.016,0.327c-0.16,0.13-0.347,0.373-0.562,0.728v-0.928h-1.328v5.322h1.401v-2.544
		c0-0.428,0.054-0.742,0.161-0.947c0.192-0.365,0.568-0.547,1.128-0.547c0.042,0,0.098,0.002,0.166,0.005s0.146,0.01,0.234,0.02
		v-1.426c-0.062-0.003-0.102-0.006-0.12-0.008C305.619,300.752,305.597,300.751,305.571,300.751L305.571,300.751L305.571,300.751z
		 M308.96,305.214c-0.407,0-0.72-0.145-0.94-0.435c-0.22-0.289-0.33-0.7-0.33-1.233s0.11-0.943,0.33-1.229
		c0.22-0.288,0.533-0.433,0.94-0.433s0.719,0.145,0.938,0.433c0.218,0.286,0.327,0.696,0.327,1.229s-0.109,0.944-0.327,1.233
		C309.679,305.069,309.367,305.214,308.96,305.214L308.96,305.214L308.96,305.214z M311.685,303.546
		c0-0.768-0.225-1.433-0.674-1.995c-0.449-0.562-1.131-0.844-2.046-0.844s-1.597,0.281-2.046,0.844
		c-0.449,0.563-0.674,1.229-0.674,1.995c0,0.781,0.225,1.448,0.674,2.003c0.449,0.555,1.131,0.832,2.046,0.832
		s1.597-0.277,2.046-0.832C311.46,304.994,311.685,304.327,311.685,303.546L311.685,303.546L311.685,303.546z M317.29,302.787
		c-0.079-0.759-0.33-1.287-0.755-1.587c-0.425-0.3-0.972-0.449-1.64-0.449c-0.786,0-1.401,0.254-1.848,0.762
		c-0.447,0.508-0.669,1.218-0.669,2.131c0,0.811,0.202,1.469,0.606,1.977c0.404,0.508,1.035,0.762,1.892,0.762
		s1.503-0.305,1.94-0.913c0.273-0.378,0.427-0.777,0.459-1.201h-1.421c-0.029,0.28-0.113,0.509-0.25,0.685s-0.369,0.264-0.695,0.264
		c-0.46,0-0.773-0.222-0.94-0.664c-0.091-0.236-0.137-0.551-0.137-0.939c0-0.409,0.045-0.736,0.137-0.983
		c0.173-0.466,0.495-0.698,0.964-0.698c0.33,0,0.573,0.107,0.729,0.322c0.107,0.159,0.174,0.338,0.201,0.537h1.427V302.787z
		 M320.459,301.884c0.328,0,0.604,0.097,0.825,0.287s0.346,0.472,0.371,0.841h-2.397c0.05-0.347,0.174-0.621,0.371-0.824
		C319.825,301.985,320.102,301.884,320.459,301.884L320.459,301.884L320.459,301.884z M320.459,300.736
		c-0.78,0-1.415,0.246-1.904,0.736c-0.489,0.492-0.733,1.199-0.733,2.121c0,0.984,0.271,1.694,0.812,2.131
		c0.541,0.438,1.167,0.655,1.875,0.655c0.858,0,1.525-0.259,2.003-0.776c0.307-0.324,0.479-0.646,0.516-0.962h-1.42
		c-0.084,0.156-0.18,0.278-0.287,0.366c-0.197,0.163-0.455,0.244-0.772,0.244c-0.299,0-0.554-0.067-0.767-0.2
		c-0.35-0.215-0.535-0.59-0.557-1.123h3.875c0.008-0.46-0.008-0.812-0.045-1.057c-0.064-0.417-0.207-0.784-0.425-1.102
		c-0.241-0.357-0.549-0.62-0.92-0.786S320.922,300.736,320.459,300.736L320.459,300.736L320.459,300.736z M323.473,304.501
		c0,0.547,0.198,0.997,0.6,1.35c0.398,0.354,1.019,0.53,1.855,0.53c0.822,0,1.43-0.167,1.822-0.501
		c0.395-0.333,0.59-0.764,0.59-1.291c0-0.399-0.137-0.733-0.41-1.001c-0.277-0.264-0.691-0.461-1.246-0.591
		c-0.832-0.183-1.315-0.312-1.453-0.386c-0.138-0.072-0.205-0.188-0.205-0.348c0-0.127,0.063-0.236,0.192-0.332
		c0.13-0.095,0.345-0.142,0.648-0.142c0.368,0,0.63,0.094,0.784,0.283c0.08,0.104,0.131,0.246,0.15,0.425h1.393
		c-0.062-0.651-0.303-1.109-0.723-1.375c-0.419-0.265-0.962-0.397-1.627-0.397c-0.701,0-1.244,0.178-1.632,0.529
		c-0.387,0.354-0.58,0.775-0.58,1.269c0,0.416,0.123,0.734,0.371,0.957c0.247,0.225,0.674,0.411,1.278,0.562
		c0.84,0.198,1.324,0.339,1.455,0.42s0.195,0.2,0.195,0.356c0,0.162-0.08,0.285-0.242,0.365c-0.162,0.081-0.381,0.122-0.655,0.122
		c-0.468,0-0.788-0.093-0.961-0.277c-0.099-0.104-0.162-0.28-0.191-0.527H323.473L323.473,304.501z M329.033,304.501
		c0,0.547,0.199,0.997,0.6,1.35c0.399,0.354,1.018,0.53,1.855,0.53c0.822,0,1.431-0.167,1.822-0.501
		c0.395-0.333,0.59-0.764,0.59-1.291c0-0.399-0.137-0.733-0.409-1.001c-0.276-0.264-0.692-0.461-1.247-0.591
		c-0.831-0.183-1.315-0.312-1.453-0.386c-0.137-0.072-0.205-0.188-0.205-0.348c0-0.127,0.064-0.236,0.193-0.332
		c0.129-0.095,0.345-0.142,0.647-0.142c0.369,0,0.63,0.094,0.783,0.283c0.082,0.104,0.133,0.246,0.151,0.425h1.393
		c-0.062-0.651-0.303-1.109-0.722-1.375c-0.421-0.265-0.962-0.397-1.628-0.397c-0.7,0-1.245,0.178-1.631,0.529
		c-0.388,0.354-0.58,0.775-0.58,1.269c0,0.416,0.123,0.734,0.371,0.957c0.246,0.225,0.672,0.411,1.277,0.562
		c0.84,0.198,1.325,0.339,1.456,0.42c0.13,0.081,0.195,0.2,0.195,0.356c0,0.162-0.081,0.285-0.243,0.365
		c-0.162,0.081-0.38,0.122-0.654,0.122c-0.469,0-0.789-0.093-0.962-0.277c-0.099-0.104-0.161-0.28-0.19-0.527H329.033
		L329.033,304.501z M337.145,301.884c0.328,0,0.604,0.097,0.824,0.287c0.223,0.19,0.346,0.472,0.371,0.841h-2.396
		c0.051-0.347,0.174-0.621,0.369-0.824C336.51,301.985,336.786,301.884,337.145,301.884L337.145,301.884L337.145,301.884z
		 M337.145,300.736c-0.78,0-1.416,0.246-1.903,0.736c-0.489,0.492-0.733,1.199-0.733,2.121c0,0.984,0.271,1.694,0.812,2.131
		c0.541,0.438,1.166,0.655,1.875,0.655c0.857,0,1.525-0.259,2.003-0.776c0.306-0.324,0.478-0.646,0.516-0.962h-1.421
		c-0.083,0.156-0.179,0.278-0.286,0.366c-0.198,0.163-0.456,0.244-0.772,0.244c-0.299,0-0.555-0.067-0.768-0.2
		c-0.35-0.215-0.535-0.59-0.557-1.123h3.876c0.007-0.46-0.009-0.812-0.046-1.057c-0.064-0.417-0.206-0.784-0.424-1.102
		c-0.242-0.357-0.549-0.62-0.92-0.786S337.605,300.736,337.145,300.736L337.145,300.736L337.145,300.736z M340.449,300.878v3.208
		c0,0.608,0.076,1.069,0.229,1.382c0.272,0.566,0.803,0.851,1.588,0.851c0.272,0,0.51-0.036,0.713-0.107s0.414-0.205,0.631-0.4
		c0.072-0.062,0.134-0.134,0.186-0.215c0.053-0.081,0.085-0.13,0.098-0.146v0.752h1.354v-5.322h-1.411v2.896
		c0,0.342-0.046,0.616-0.136,0.824c-0.176,0.385-0.499,0.576-0.973,0.576c-0.369,0-0.617-0.136-0.744-0.404
		c-0.07-0.153-0.105-0.382-0.105-0.685v-3.208h-1.428V300.878z M349.486,300.751c-0.416,0-0.754,0.108-1.016,0.327
		c-0.158,0.13-0.347,0.373-0.562,0.728v-0.928h-1.328v5.322h1.401v-2.544c0-0.428,0.054-0.742,0.16-0.947
		c0.191-0.365,0.568-0.547,1.129-0.547c0.041,0,0.098,0.002,0.166,0.005c0.067,0.003,0.146,0.01,0.233,0.02v-1.426
		c-0.062-0.003-0.103-0.006-0.12-0.008C349.535,300.752,349.514,300.751,349.486,300.751L349.486,300.751L349.486,300.751z"/>
	<path d="M313.794,315.251l1.911,2.949h1.202l-2.495-3.681l2.379-3.492h-1.153l-1.795,2.744l-1.81-2.744h-1.211l2.38,3.492
		l-2.539,3.681h1.168L313.794,315.251L313.794,315.251z M317.617,315.886c-0.01,0.774,0.231,1.389,0.724,1.841
		c0.492,0.455,1.173,0.685,2.043,0.685c0.746,0,1.4-0.171,1.964-0.513c0.564-0.343,0.846-0.91,0.846-1.704
		c0-0.64-0.221-1.125-0.661-1.46c-0.257-0.192-0.618-0.345-1.089-0.454l-0.976-0.229c-0.656-0.156-1.077-0.286-1.263-0.391
		c-0.284-0.163-0.426-0.42-0.426-0.771c0-0.318,0.12-0.599,0.36-0.84c0.24-0.241,0.635-0.361,1.185-0.361
		c0.68,0,1.162,0.188,1.445,0.562c0.153,0.205,0.254,0.5,0.301,0.884h0.912c0-0.798-0.256-1.378-0.768-1.741
		c-0.512-0.361-1.133-0.544-1.865-0.544c-0.795,0-1.409,0.206-1.843,0.62c-0.434,0.413-0.651,0.942-0.651,1.587
		c0,0.597,0.221,1.043,0.662,1.344c0.255,0.172,0.69,0.329,1.306,0.474l0.941,0.22c0.51,0.12,0.885,0.263,1.125,0.425
		c0.236,0.166,0.354,0.444,0.354,0.835c0,0.521-0.279,0.883-0.837,1.084c-0.289,0.104-0.608,0.156-0.96,0.156
		c-0.784,0-1.331-0.237-1.642-0.713c-0.163-0.254-0.255-0.584-0.277-0.991h-0.912V315.886z M324.564,318.2h4.57v-0.854h-3.599
		v-6.317h-0.972V318.2L324.564,318.2z"/>
	<polygon points="328.789,311.027 328.789,311.882 331.206,311.882 331.206,318.2 332.188,318.2 332.188,311.882 334.604,311.882 
		334.604,311.027 	"/>
	<path fill="#F95F9D" d="M350.1,156.24c0-6.48-0.724-7.281-6.012-13.694l-0.056-0.066c-5.315-6.48-5.371-6.48-10.826-6.48
		c-7.265,0-40.106,0-40.106,0v68.4h57V156.24L350.1,156.24z"/>
	<path fill="none" stroke="#000000" stroke-linecap="round" stroke-linejoin="round" stroke-miterlimit="10" d="M350.1,156.24
		c0-6.48-0.724-7.281-6.012-13.694l-0.056-0.066c-5.315-6.48-5.371-6.48-10.826-6.48c-7.265,0-40.106,0-40.106,0v68.4h57V156.24
		L350.1,156.24z M350.1,155.906c0-6.146-0.056-6.146-11.438-6.146l0,0c0-13.693,0-13.76-5.121-13.76"/>
	<path d="M301.389,167.2h0.777v-2.426h1.792c0.574,0,1-0.166,1.279-0.498c0.279-0.332,0.418-0.722,0.418-1.17
		c0-0.521-0.156-0.925-0.468-1.213s-0.722-0.432-1.229-0.432h-2.568L301.389,167.2L301.389,167.2z M304.87,163.11
		c0,0.375-0.108,0.637-0.324,0.785c-0.216,0.148-0.497,0.223-0.844,0.223h-1.536v-1.988h1.536c0.297,0,0.531,0.04,0.702,0.121
		C304.714,162.402,304.87,162.688,304.87,163.11L304.87,163.11L304.87,163.11z M306.577,167.2h0.703v-2.406
		c0-0.297,0.095-0.56,0.285-0.787c0.19-0.228,0.462-0.342,0.816-0.342c0.042,0,0.08,0.001,0.115,0.004
		c0.035,0.002,0.073,0.008,0.115,0.016v-0.742c-0.076-0.008-0.129-0.013-0.16-0.016c-0.031-0.003-0.054-0.004-0.066-0.004
		c-0.279,0-0.525,0.101-0.738,0.303c-0.214,0.202-0.348,0.373-0.402,0.514v-0.723h-0.668V167.2L306.577,167.2z M310.868,166.743
		c-0.42,0-0.726-0.148-0.919-0.445c-0.193-0.297-0.29-0.667-0.29-1.112c0-0.463,0.096-0.858,0.29-1.186
		c0.193-0.328,0.502-0.491,0.927-0.491c0.479,0,0.816,0.192,1.012,0.577c0.124,0.245,0.186,0.562,0.186,0.952
		c0,0.432-0.086,0.824-0.257,1.176C311.645,166.567,311.329,166.743,310.868,166.743L310.868,166.743L310.868,166.743z
		 M310.895,162.896c-0.597,0-1.073,0.208-1.427,0.624c-0.354,0.417-0.531,0.976-0.531,1.678c0,0.656,0.168,1.178,0.504,1.567
		c0.336,0.389,0.79,0.583,1.362,0.583c0.685,0,1.19-0.22,1.517-0.66c0.326-0.44,0.489-0.997,0.489-1.67
		c0-0.697-0.185-1.226-0.555-1.584C311.882,163.075,311.43,162.896,310.895,162.896L310.895,162.896L310.895,162.896z
		 M315.14,162.942c-0.482,0-0.895,0.196-1.235,0.59c-0.341,0.393-0.512,0.94-0.512,1.641c0,0.742,0.169,1.274,0.508,1.596
		c0.338,0.321,0.733,0.482,1.185,0.482c0.324,0,0.585-0.052,0.782-0.156c0.197-0.104,0.366-0.263,0.506-0.477
		c0.008,0.575-0.038,0.975-0.136,1.199c-0.166,0.38-0.517,0.57-1.053,0.57c-0.339,0-0.588-0.078-0.746-0.234
		c-0.101-0.102-0.168-0.246-0.202-0.434h-0.715c0.036,0.43,0.208,0.745,0.514,0.947s0.684,0.303,1.133,0.303
		c0.807,0,1.356-0.284,1.646-0.852c0.156-0.308,0.234-0.727,0.234-1.258v-3.805h-0.648v0.527c-0.138-0.175-0.272-0.308-0.405-0.398
		C315.752,163.023,315.467,162.942,315.14,162.942L315.14,162.942L315.14,162.942z M316.401,165.091
		c0,0.344-0.057,0.645-0.171,0.902c-0.205,0.456-0.558,0.684-1.061,0.684c-0.321,0-0.577-0.123-0.768-0.369
		s-0.286-0.605-0.286-1.076c0-0.401,0.048-0.726,0.144-0.973c0.182-0.464,0.518-0.695,1.011-0.695c0.329,0,0.6,0.125,0.812,0.375
		S316.401,164.572,316.401,165.091L316.401,165.091L316.401,165.091z M318.139,167.2h0.703v-2.406c0-0.297,0.095-0.56,0.285-0.787
		c0.19-0.228,0.462-0.342,0.816-0.342c0.042,0,0.08,0.001,0.115,0.004c0.035,0.002,0.074,0.008,0.115,0.016v-0.742
		c-0.075-0.008-0.129-0.013-0.16-0.016c-0.031-0.003-0.053-0.004-0.066-0.004c-0.279,0-0.525,0.101-0.738,0.303
		c-0.214,0.202-0.348,0.373-0.402,0.514v-0.723h-0.668V167.2L318.139,167.2z M321.322,166.088c0-0.268,0.109-0.462,0.326-0.585
		c0.129-0.073,0.319-0.126,0.574-0.16l0.426-0.055c0.129-0.016,0.263-0.042,0.396-0.078c0.135-0.036,0.245-0.083,0.331-0.137v0.565
		c0,0.432-0.194,0.742-0.586,0.932c-0.231,0.114-0.472,0.172-0.72,0.172c-0.202,0-0.379-0.059-0.526-0.176
		C321.396,166.451,321.322,166.291,321.322,166.088L321.322,166.088L321.322,166.088z M321.904,164.809
		c-0.394,0.049-0.711,0.181-0.953,0.394s-0.363,0.514-0.363,0.901c0,0.354,0.123,0.648,0.369,0.883
		c0.246,0.235,0.562,0.354,0.951,0.354c0.322,0,0.619-0.069,0.887-0.207c0.27-0.138,0.475-0.301,0.617-0.488
		c0.023,0.167,0.064,0.295,0.121,0.387c0.109,0.172,0.285,0.258,0.527,0.258c0.1,0,0.178-0.004,0.233-0.012
		c0.058-0.008,0.142-0.027,0.25-0.059v-0.52c-0.044,0.008-0.086,0.014-0.125,0.018c-0.039,0.004-0.074,0.006-0.104,0.006
		c-0.097,0-0.16-0.022-0.189-0.066c-0.029-0.044-0.045-0.103-0.045-0.176v-2.41c0-0.396-0.151-0.688-0.456-0.875
		c-0.308-0.188-0.706-0.281-1.198-0.281c-0.424,0-0.796,0.101-1.117,0.303c-0.32,0.203-0.488,0.562-0.502,1.08h0.656
		c0.025-0.217,0.082-0.381,0.168-0.491c0.153-0.199,0.413-0.298,0.779-0.298c0.316,0,0.562,0.054,0.73,0.163
		c0.17,0.109,0.256,0.283,0.256,0.523c0,0.118-0.017,0.208-0.047,0.271c-0.056,0.114-0.162,0.182-0.324,0.203L321.904,164.809
		L321.904,164.809z M325.232,167.2h0.703v-2.219c0-0.539,0.108-0.912,0.325-1.117c0.218-0.206,0.46-0.309,0.726-0.309
		c0.291,0,0.49,0.098,0.598,0.293c0.068,0.13,0.102,0.337,0.102,0.621v2.73h0.715v-2.434c0-0.433,0.101-0.741,0.3-0.926
		c0.198-0.185,0.438-0.277,0.713-0.277c0.2,0,0.371,0.052,0.51,0.156c0.14,0.104,0.209,0.295,0.209,0.574v2.906h0.729v-2.785
		c0-0.37-0.055-0.664-0.163-0.883c-0.203-0.406-0.587-0.609-1.148-0.609c-0.263,0-0.5,0.054-0.711,0.162s-0.396,0.274-0.551,0.498
		c-0.095-0.183-0.197-0.32-0.312-0.414c-0.203-0.164-0.472-0.246-0.806-0.246c-0.294,0-0.557,0.079-0.789,0.238
		c-0.135,0.094-0.286,0.243-0.452,0.449v-0.594h-0.695v4.186H325.232z M331.896,167.2h0.703v-2.219c0-0.539,0.108-0.912,0.325-1.117
		c0.218-0.206,0.459-0.309,0.726-0.309c0.291,0,0.49,0.098,0.598,0.293c0.068,0.13,0.102,0.337,0.102,0.621v2.73h0.715v-2.434
		c0-0.433,0.101-0.741,0.299-0.926c0.199-0.185,0.438-0.277,0.714-0.277c0.2,0,0.371,0.052,0.51,0.156
		c0.14,0.104,0.209,0.295,0.209,0.574v2.906h0.729v-2.785c0-0.37-0.055-0.664-0.164-0.883c-0.202-0.406-0.586-0.609-1.147-0.609
		c-0.263,0-0.5,0.054-0.711,0.162s-0.396,0.274-0.551,0.498c-0.095-0.183-0.197-0.32-0.312-0.414
		c-0.203-0.164-0.472-0.246-0.806-0.246c-0.294,0-0.558,0.079-0.789,0.238c-0.135,0.094-0.286,0.243-0.453,0.449v-0.594h-0.694
		v4.186H331.896z M340.287,162.923c-0.585,0-1.059,0.209-1.421,0.629c-0.362,0.419-0.544,0.965-0.544,1.637
		c0,0.682,0.18,1.213,0.539,1.592c0.359,0.379,0.799,0.568,1.315,0.568c0.212,0,0.402-0.021,0.57-0.062
		c0.312-0.073,0.575-0.214,0.787-0.422c0.127-0.12,0.241-0.274,0.344-0.463c0.104-0.189,0.164-0.36,0.183-0.514h-0.691
		c-0.051,0.186-0.137,0.349-0.258,0.49c-0.217,0.243-0.508,0.365-0.873,0.365c-0.389,0-0.678-0.129-0.863-0.386
		c-0.186-0.257-0.285-0.599-0.299-1.024h3.043c0-0.422-0.021-0.729-0.062-0.922c-0.047-0.281-0.14-0.527-0.279-0.738
		c-0.146-0.222-0.355-0.402-0.633-0.541C340.868,162.992,340.582,162.923,340.287,162.923L340.287,162.923L340.287,162.923z
		 M339.092,164.774c0.014-0.359,0.129-0.656,0.346-0.889c0.217-0.233,0.484-0.35,0.806-0.35c0.446,0,0.766,0.169,0.957,0.508
		c0.104,0.182,0.169,0.426,0.196,0.73L339.092,164.774L339.092,164.774z"/>
	<path d="M312.547,176.746l1.368,2.454h1.826l-2.339-3.726l2.202-3.472h-1.738l-1.319,2.344l-1.284-2.344h-1.797l2.202,3.53
		l-2.314,3.667h1.748L312.547,176.746L312.547,176.746z M316.271,176.979c0,0.749,0.271,1.337,0.814,1.765
		c0.543,0.428,1.289,0.642,2.236,0.642c0.928,0,1.646-0.217,2.154-0.652s0.764-0.981,0.764-1.638c0-0.642-0.215-1.131-0.645-1.47
		c-0.275-0.218-0.691-0.393-1.245-0.522l-1.263-0.298c-0.487-0.114-0.806-0.213-0.957-0.298c-0.233-0.127-0.35-0.319-0.35-0.576
		c0-0.28,0.118-0.498,0.355-0.654c0.237-0.156,0.554-0.234,0.951-0.234c0.357,0,0.655,0.06,0.896,0.181
		c0.36,0.182,0.555,0.49,0.582,0.923h1.444c-0.026-0.765-0.312-1.349-0.853-1.75c-0.543-0.402-1.197-0.603-1.965-0.603
		c-0.919,0-1.617,0.213-2.091,0.64c-0.474,0.426-0.711,0.962-0.711,1.606c0,0.706,0.242,1.226,0.728,1.558
		c0.286,0.198,0.812,0.382,1.578,0.552l0.779,0.171c0.456,0.098,0.789,0.21,0.999,0.337c0.211,0.13,0.315,0.314,0.315,0.552
		c0,0.407-0.216,0.685-0.644,0.835c-0.226,0.078-0.52,0.117-0.882,0.117c-0.605,0-1.032-0.148-1.281-0.444
		c-0.136-0.163-0.228-0.409-0.274-0.737h-1.434V176.979z M323.292,179.2h5.099v-1.294h-3.595v-5.903h-1.504V179.2L323.292,179.2z"/>
	<polygon points="328.062,172.003 328.062,173.277 330.227,173.277 330.227,179.2 331.739,179.2 331.739,173.277 333.893,173.277 
		333.893,172.003 	"/>
	<line fill="none" stroke="#000000" stroke-miterlimit="10" x1="320.5" y1="215" x2="320.5" y2="267.1"/>
	<path d="M320.5,272.1l3-8l-3,3l0,0l-3-3L320.5,272.1z"/>
	<path fill="none" stroke="#000000" stroke-miterlimit="10" d="M320.5,272.1l3-8l-3,3l0,0l-3-3L320.5,272.1z"/>
	<path d="M218.606,297.894c-0.345,0.345-0.723,0.517-1.133,0.517c-0.605,0-0.964-0.271-1.074-0.812
		c-0.062-0.282-0.051-0.626,0.034-1.03c0.107-0.5,0.255-0.914,0.444-1.239c0.354-0.608,0.836-0.913,1.445-0.913
		c0.604,0,0.96,0.288,1.063,0.864c0.059,0.3,0.044,0.657-0.044,1.073C219.197,297.037,218.951,297.551,218.606,297.894
		L218.606,297.894z M214.632,301.085h0.879l0.566-2.671c0.14,0.237,0.278,0.405,0.415,0.503c0.231,0.173,0.543,0.259,0.938,0.259
		c0.501,0,0.973-0.153,1.416-0.464c0.7-0.488,1.17-1.302,1.411-2.44c0.179-0.844,0.11-1.492-0.205-1.946
		c-0.316-0.454-0.77-0.681-1.362-0.681c-0.4,0-0.77,0.098-1.108,0.293c-0.238,0.129-0.469,0.313-0.693,0.551l0.146-0.692h-0.854
		L214.632,301.085L214.632,301.085z M221.822,298.209c-0.155-0.146-0.205-0.347-0.149-0.601c0.071-0.335,0.259-0.579,0.562-0.732
		c0.179-0.091,0.433-0.158,0.762-0.2l0.547-0.068c0.166-0.02,0.338-0.051,0.518-0.098c0.179-0.046,0.329-0.103,0.449-0.171
		l-0.146,0.708c-0.117,0.54-0.444,0.93-0.981,1.167c-0.322,0.145-0.638,0.215-0.947,0.215
		C222.181,298.429,221.977,298.355,221.822,298.209L221.822,298.209z M222.742,296.007c-0.505,0.062-0.937,0.228-1.296,0.493
		c-0.359,0.266-0.592,0.643-0.696,1.128c-0.095,0.442-0.019,0.812,0.227,1.105c0.246,0.295,0.611,0.441,1.096,0.441
		c0.403,0,0.791-0.086,1.162-0.259c0.371-0.173,0.672-0.376,0.903-0.61c-0.017,0.208,0,0.369,0.049,0.483
		c0.091,0.215,0.288,0.322,0.591,0.322c0.124,0,0.222-0.005,0.295-0.016c0.073-0.01,0.181-0.034,0.325-0.072l0.142-0.649
		c-0.059,0.01-0.113,0.017-0.164,0.021c-0.051,0.005-0.095,0.009-0.134,0.009c-0.121,0-0.193-0.027-0.217-0.083
		c-0.024-0.057-0.027-0.129-0.007-0.221l0.64-3.013c0.104-0.495-0.01-0.858-0.342-1.094s-0.806-0.353-1.421-0.353
		c-0.531,0-1.024,0.127-1.479,0.379c-0.456,0.252-0.76,0.7-0.913,1.346h0.82c0.088-0.271,0.2-0.475,0.337-0.61
		c0.244-0.247,0.596-0.371,1.055-0.371c0.397,0,0.688,0.067,0.874,0.202c0.186,0.137,0.246,0.354,0.181,0.652
		c-0.029,0.146-0.072,0.259-0.127,0.337c-0.101,0.144-0.256,0.228-0.464,0.254L222.742,296.007L222.742,296.007z M226.292,299h0.879
		l0.635-3.008c0.081-0.371,0.271-0.699,0.569-0.984c0.298-0.283,0.668-0.427,1.111-0.427c0.052,0,0.099,0.002,0.142,0.005
		c0.042,0.003,0.089,0.01,0.142,0.02l0.195-0.928c-0.091-0.01-0.156-0.017-0.195-0.02c-0.039-0.004-0.067-0.006-0.083-0.006
		c-0.349,0-0.683,0.127-1.003,0.379c-0.321,0.253-0.533,0.467-0.637,0.643l0.19-0.902H227.4L226.292,299L226.292,299z
		 M229.622,297.359c-0.088,0.521-0.007,0.958,0.242,1.311c0.249,0.354,0.762,0.53,1.541,0.53c0.723,0,1.296-0.169,1.721-0.508
		s0.686-0.74,0.784-1.206c0.104-0.481,0.01-0.836-0.283-1.061c-0.186-0.144-0.578-0.291-1.177-0.443l-0.552-0.143
		c-0.241-0.062-0.418-0.134-0.532-0.215c-0.195-0.137-0.269-0.318-0.22-0.547c0.045-0.208,0.167-0.376,0.364-0.503
		c0.197-0.127,0.461-0.19,0.793-0.19c0.498,0,0.823,0.115,0.977,0.348c0.091,0.162,0.124,0.344,0.098,0.541h0.83
		c0.078-0.338,0.039-0.653-0.117-0.946c-0.251-0.462-0.77-0.693-1.558-0.693c-0.603,0-1.114,0.153-1.536,0.46
		c-0.422,0.305-0.685,0.705-0.789,1.2c-0.091,0.42,0.027,0.749,0.356,0.986c0.182,0.137,0.485,0.261,0.908,0.37l0.659,0.177
		c0.354,0.095,0.587,0.178,0.698,0.249c0.176,0.117,0.239,0.288,0.19,0.513c-0.062,0.296-0.232,0.516-0.51,0.656
		c-0.278,0.141-0.581,0.213-0.906,0.213c-0.547,0-0.9-0.142-1.06-0.425c-0.088-0.156-0.114-0.381-0.078-0.674H229.622
		L229.622,297.359z M234.598,299h0.894l1.104-5.205h-0.894L234.598,299L234.598,299z M235.906,292.823h0.894l0.215-0.996h-0.894
		L235.906,292.823L235.906,292.823z M236.819,299h0.879l0.581-2.739c0.071-0.342,0.149-0.604,0.232-0.788s0.215-0.361,0.398-0.535
		c0.228-0.215,0.47-0.357,0.728-0.43c0.143-0.042,0.319-0.062,0.527-0.062c0.41,0,0.659,0.162,0.747,0.488
		c0.052,0.194,0.044,0.451-0.024,0.771L240.188,299h0.894l0.713-3.354c0.11-0.527,0.124-0.934,0.039-1.217
		c-0.15-0.518-0.596-0.775-1.338-0.775c-0.339,0-0.66,0.066-0.964,0.199c-0.304,0.135-0.613,0.354-0.925,0.66l0.156-0.742h-0.835
		L236.819,299L236.819,299z M245.354,293.678c-0.605,0-1.174,0.246-1.707,0.737c-0.533,0.491-0.891,1.175-1.077,2.051
		c-0.199,0.929-0.128,1.593,0.212,1.994c0.34,0.402,0.793,0.604,1.36,0.604c0.407,0,0.748-0.065,1.023-0.195
		s0.528-0.329,0.759-0.596c-0.144,0.72-0.306,1.219-0.488,1.498c-0.31,0.477-0.801,0.714-1.475,0.714
		c-0.427,0-0.718-0.099-0.874-0.293c-0.101-0.127-0.148-0.309-0.142-0.542h-0.894c-0.068,0.536,0.062,0.932,0.393,1.184
		c0.331,0.253,0.777,0.379,1.34,0.379c1.012,0,1.777-0.354,2.295-1.063c0.276-0.385,0.485-0.908,0.625-1.572l1.011-4.757h-0.811
		l-0.142,0.66c-0.124-0.219-0.257-0.385-0.4-0.498C246.102,293.777,245.765,293.678,245.354,293.678L245.354,293.678
		L245.354,293.678z M246.272,294.923c0.202,0.312,0.232,0.793,0.093,1.44c-0.091,0.43-0.243,0.806-0.454,1.128
		c-0.378,0.568-0.882,0.854-1.514,0.854c-0.404,0-0.692-0.153-0.867-0.462c-0.175-0.308-0.198-0.756-0.071-1.345
		c0.104-0.501,0.25-0.906,0.439-1.216c0.348-0.579,0.832-0.869,1.45-0.869C245.763,294.454,246.07,294.609,246.272,294.923
		L246.272,294.923z"/>
	<path d="M330.16,236.409c-0.154-0.146-0.204-0.347-0.148-0.601c0.071-0.335,0.258-0.58,0.562-0.732
		c0.18-0.091,0.434-0.158,0.762-0.2l0.547-0.068c0.166-0.02,0.339-0.052,0.519-0.098s0.328-0.103,0.449-0.171l-0.146,0.708
		c-0.117,0.54-0.444,0.929-0.98,1.167c-0.322,0.143-0.639,0.215-0.947,0.215C330.52,236.629,330.314,236.556,330.16,236.409
		L330.16,236.409z M331.08,234.207c-0.504,0.062-0.938,0.226-1.296,0.493c-0.359,0.267-0.593,0.643-0.696,1.128
		c-0.094,0.442-0.02,0.811,0.229,1.106c0.246,0.294,0.61,0.442,1.096,0.442c0.404,0,0.791-0.086,1.162-0.259
		c0.371-0.173,0.673-0.376,0.902-0.61c-0.016,0.208,0,0.369,0.049,0.483c0.093,0.215,0.289,0.322,0.592,0.322
		c0.124,0,0.223-0.005,0.296-0.015c0.073-0.01,0.183-0.034,0.323-0.073l0.143-0.649c-0.059,0.01-0.111,0.017-0.163,0.022
		c-0.051,0.005-0.096,0.007-0.135,0.007c-0.12,0-0.192-0.028-0.218-0.083c-0.023-0.056-0.026-0.129-0.008-0.22l0.641-3.013
		c0.104-0.495-0.01-0.859-0.342-1.094c-0.332-0.235-0.807-0.352-1.422-0.352c-0.529,0-1.022,0.126-1.479,0.378
		c-0.455,0.252-0.76,0.701-0.913,1.345h0.82c0.088-0.271,0.2-0.474,0.337-0.61c0.244-0.248,0.596-0.371,1.055-0.371
		c0.397,0,0.688,0.067,0.874,0.203c0.187,0.135,0.246,0.352,0.181,0.652c-0.028,0.146-0.07,0.259-0.127,0.337
		c-0.101,0.143-0.254,0.228-0.463,0.254L331.08,234.207L331.08,234.207z M334.605,237.2h0.879l0.58-2.739
		c0.072-0.342,0.149-0.605,0.232-0.789s0.217-0.362,0.396-0.535c0.229-0.215,0.472-0.358,0.729-0.43
		c0.145-0.042,0.319-0.063,0.527-0.063c0.41,0,0.658,0.163,0.746,0.488c0.054,0.195,0.045,0.452-0.023,0.771l-0.697,3.296h0.894
		l0.713-3.354c0.11-0.527,0.124-0.933,0.039-1.216c-0.149-0.518-0.597-0.776-1.338-0.776c-0.339,0-0.659,0.066-0.964,0.2
		c-0.305,0.133-0.613,0.354-0.926,0.659l0.155-0.742h-0.835L334.605,237.2L334.605,237.2z M341.283,236.409
		c-0.154-0.146-0.204-0.347-0.149-0.601c0.072-0.335,0.259-0.58,0.562-0.732c0.181-0.091,0.435-0.158,0.763-0.2l0.547-0.068
		c0.166-0.02,0.339-0.052,0.519-0.098s0.328-0.103,0.449-0.171l-0.146,0.708c-0.117,0.54-0.444,0.929-0.98,1.167
		c-0.322,0.143-0.639,0.215-0.947,0.215C341.643,236.629,341.438,236.556,341.283,236.409L341.283,236.409z M342.203,234.207
		c-0.504,0.062-0.938,0.226-1.296,0.493c-0.359,0.267-0.593,0.643-0.696,1.128c-0.094,0.442-0.02,0.811,0.229,1.106
		c0.246,0.294,0.61,0.442,1.096,0.442c0.404,0,0.791-0.086,1.162-0.259c0.371-0.173,0.673-0.376,0.902-0.61
		c-0.016,0.208,0,0.369,0.049,0.483c0.093,0.215,0.289,0.322,0.592,0.322c0.124,0,0.223-0.005,0.296-0.015
		c0.073-0.01,0.182-0.034,0.323-0.073l0.143-0.649c-0.059,0.01-0.111,0.017-0.163,0.022c-0.051,0.005-0.096,0.007-0.135,0.007
		c-0.12,0-0.192-0.028-0.218-0.083c-0.023-0.056-0.026-0.129-0.008-0.22l0.641-3.013c0.104-0.495-0.01-0.859-0.342-1.094
		c-0.332-0.235-0.807-0.352-1.422-0.352c-0.529,0-1.022,0.126-1.479,0.378c-0.455,0.252-0.76,0.701-0.913,1.345h0.82
		c0.088-0.271,0.2-0.474,0.337-0.61c0.244-0.248,0.596-0.371,1.055-0.371c0.397,0,0.688,0.067,0.874,0.203
		c0.187,0.135,0.246,0.352,0.181,0.652c-0.028,0.146-0.07,0.259-0.127,0.337c-0.101,0.143-0.254,0.228-0.463,0.254L342.203,234.207
		L342.203,234.207z M345.753,237.2h0.879l1.522-7.173h-0.879L345.753,237.2L345.753,237.2z M350.011,236.229l-0.497-4.258h-0.996
		l0.791,5.381c-0.072,0.117-0.184,0.296-0.334,0.537c-0.152,0.241-0.238,0.374-0.263,0.4c-0.067,0.078-0.146,0.144-0.233,0.198
		c-0.088,0.054-0.213,0.081-0.377,0.081c-0.052,0-0.11-0.005-0.178-0.015c-0.066-0.01-0.172-0.036-0.314-0.078l-0.172,0.801
		c0.092,0.026,0.17,0.044,0.234,0.054c0.064,0.01,0.16,0.015,0.283,0.015c0.508,0,0.896-0.146,1.167-0.438
		c0.271-0.293,0.803-1.107,1.597-2.441c0.336-0.566,0.758-1.299,1.266-2.197c0.681-1.195,1.117-1.96,1.312-2.295h-0.972
		L350.011,236.229L350.011,236.229z M352.975,235.56c-0.088,0.521-0.007,0.958,0.242,1.311s0.764,0.53,1.54,0.53
		c0.724,0,1.298-0.169,1.722-0.508c0.426-0.339,0.687-0.741,0.783-1.206c0.104-0.482,0.01-0.835-0.283-1.06
		c-0.186-0.144-0.576-0.292-1.177-0.444l-0.552-0.142c-0.24-0.062-0.418-0.134-0.532-0.215c-0.194-0.137-0.269-0.319-0.22-0.547
		c0.046-0.208,0.167-0.376,0.363-0.503c0.197-0.127,0.462-0.19,0.793-0.19c0.498,0,0.824,0.115,0.978,0.347
		c0.093,0.163,0.124,0.343,0.099,0.542h0.83c0.078-0.339,0.039-0.654-0.117-0.947c-0.25-0.462-0.771-0.693-1.559-0.693
		c-0.602,0-1.113,0.153-1.535,0.459c-0.422,0.306-0.685,0.706-0.789,1.201c-0.091,0.42,0.028,0.749,0.356,0.986
		c0.183,0.137,0.485,0.26,0.907,0.371l0.66,0.176c0.354,0.094,0.588,0.177,0.697,0.249c0.176,0.117,0.239,0.288,0.19,0.513
		c-0.062,0.296-0.231,0.515-0.511,0.657c-0.278,0.142-0.58,0.212-0.905,0.212c-0.548,0-0.899-0.142-1.06-0.425
		c-0.088-0.156-0.113-0.381-0.078-0.674H352.975L352.975,235.56z M362.286,232.115c-0.312-0.174-0.654-0.261-1.024-0.261
		c-0.736,0-1.388,0.262-1.953,0.786c-0.566,0.524-0.938,1.206-1.119,2.046c-0.182,0.853-0.098,1.516,0.254,1.99
		c0.353,0.474,0.854,0.71,1.505,0.71c0.268,0,0.513-0.026,0.737-0.078c0.414-0.091,0.78-0.267,1.104-0.527
		c0.191-0.15,0.377-0.343,0.555-0.579c0.178-0.236,0.299-0.45,0.363-0.642h-0.864c-0.112,0.231-0.269,0.435-0.464,0.61
		c-0.335,0.303-0.732,0.454-1.191,0.454c-0.49,0-0.819-0.161-0.987-0.481c-0.168-0.321-0.203-0.747-0.105-1.277h3.833
		c0.114-0.527,0.17-0.912,0.166-1.152c0.018-0.352-0.035-0.659-0.156-0.923C362.814,232.514,362.6,232.289,362.286,232.115
		L362.286,232.115z M359.264,234.168c0.114-0.449,0.34-0.82,0.674-1.111c0.336-0.292,0.705-0.437,1.108-0.437
		c0.563,0,0.92,0.211,1.069,0.635c0.082,0.228,0.1,0.532,0.054,0.913H359.264L359.264,234.168z M369.43,232.815
		c-0.191-0.29-0.322-0.526-0.393-0.708c-0.07-0.183-0.084-0.373-0.042-0.571c0.032-0.146,0.098-0.282,0.194-0.405
		c0.189-0.241,0.465-0.361,0.826-0.361c0.237,0,0.409,0.076,0.518,0.229c0.107,0.153,0.141,0.335,0.098,0.547
		c-0.059,0.27-0.206,0.516-0.443,0.737C370.04,232.42,369.788,232.597,369.43,232.815L369.43,232.815L369.43,232.815z
		 M369.391,236.346c-0.295,0.166-0.625,0.249-0.986,0.249c-0.314,0-0.59-0.103-0.824-0.308s-0.311-0.498-0.229-0.879
		c0.071-0.352,0.24-0.649,0.508-0.894c0.176-0.163,0.525-0.397,1.05-0.703l1.2,1.978
		C369.927,235.994,369.688,236.18,369.391,236.346L369.391,236.346z M368.126,232.332c0.054,0.237,0.192,0.53,0.42,0.879
		c-0.621,0.332-1.056,0.608-1.304,0.83c-0.406,0.364-0.667,0.818-0.781,1.362c-0.107,0.504-0.033,0.958,0.219,1.36
		c0.252,0.402,0.75,0.603,1.495,0.603c0.505,0,0.978-0.117,1.416-0.352c0.248-0.134,0.536-0.345,0.864-0.635l0.503,0.82h1.133
		l-0.946-1.548c-0.017,0.081,0.104-0.089,0.358-0.51c0.256-0.422,0.46-0.862,0.612-1.321h-0.835
		c-0.089,0.231-0.161,0.411-0.222,0.54c-0.062,0.128-0.162,0.323-0.307,0.583l-0.977-1.562c0.453-0.264,0.785-0.497,0.996-0.698
		c0.365-0.345,0.596-0.747,0.692-1.206c0.082-0.394,0.013-0.732-0.207-1.016s-0.579-0.425-1.077-0.425
		c-0.522,0-0.974,0.152-1.35,0.457c-0.376,0.304-0.614,0.688-0.716,1.15C368.07,231.865,368.074,232.094,368.126,232.332
		L368.126,232.332z M380.074,232.115c-0.312-0.174-0.654-0.261-1.025-0.261c-0.734,0-1.387,0.262-1.953,0.786
		s-0.938,1.206-1.117,2.046c-0.183,0.853-0.099,1.516,0.254,1.99c0.352,0.474,0.854,0.71,1.504,0.71
		c0.268,0,0.513-0.026,0.736-0.078c0.414-0.091,0.781-0.267,1.104-0.527c0.192-0.15,0.377-0.343,0.555-0.579
		c0.179-0.236,0.3-0.45,0.363-0.642h-0.864c-0.113,0.231-0.27,0.435-0.464,0.61c-0.335,0.303-0.731,0.454-1.19,0.454
		c-0.492,0-0.82-0.161-0.988-0.481c-0.168-0.321-0.203-0.747-0.105-1.277h3.833c0.114-0.527,0.17-0.912,0.166-1.152
		c0.017-0.352-0.034-0.659-0.155-0.923C380.604,232.514,380.387,232.289,380.074,232.115L380.074,232.115z M377.052,234.168
		c0.114-0.449,0.339-0.82,0.675-1.111c0.336-0.292,0.705-0.437,1.107-0.437c0.562,0,0.92,0.211,1.068,0.635
		c0.082,0.228,0.101,0.532,0.055,0.913H377.052L377.052,234.168z M379.312,229.866l-1.025,1.411h0.674l1.436-1.411H379.312
		L379.312,229.866z M381.816,231.971l0.82,5.229h0.938l3.081-5.229h-0.963l-2.362,4.258l-0.493-4.258H381.816L381.816,231.971z
		 M387.416,236.409c-0.154-0.146-0.204-0.347-0.148-0.601c0.071-0.335,0.258-0.58,0.562-0.732c0.18-0.091,0.435-0.158,0.762-0.2
		l0.548-0.068c0.166-0.02,0.338-0.052,0.518-0.098s0.328-0.103,0.449-0.171l-0.146,0.708c-0.117,0.54-0.443,0.929-0.98,1.167
		c-0.322,0.143-0.639,0.215-0.947,0.215C387.773,236.629,387.57,236.556,387.416,236.409L387.416,236.409z M388.336,234.207
		c-0.504,0.062-0.938,0.226-1.296,0.493c-0.358,0.267-0.592,0.643-0.696,1.128c-0.094,0.442-0.019,0.811,0.229,1.106
		c0.246,0.294,0.611,0.442,1.096,0.442c0.404,0,0.791-0.086,1.162-0.259c0.371-0.173,0.673-0.376,0.902-0.61
		c-0.016,0.208,0,0.369,0.05,0.483c0.092,0.215,0.288,0.322,0.591,0.322c0.124,0,0.223-0.005,0.296-0.015
		c0.073-0.01,0.183-0.034,0.324-0.073l0.142-0.649c-0.059,0.01-0.111,0.017-0.162,0.022c-0.052,0.005-0.097,0.007-0.136,0.007
		c-0.12,0-0.192-0.028-0.217-0.083c-0.024-0.056-0.027-0.129-0.009-0.22l0.641-3.013c0.104-0.495-0.01-0.859-0.342-1.094
		c-0.332-0.235-0.807-0.352-1.421-0.352c-0.53,0-1.023,0.126-1.479,0.378c-0.455,0.252-0.76,0.701-0.912,1.345h0.819
		c0.088-0.271,0.2-0.474,0.337-0.61c0.244-0.248,0.596-0.371,1.055-0.371c0.397,0,0.688,0.067,0.875,0.203
		c0.186,0.135,0.246,0.352,0.181,0.652c-0.029,0.146-0.071,0.259-0.128,0.337c-0.101,0.143-0.254,0.228-0.463,0.254L388.336,234.207
		L388.336,234.207z M391.886,237.2h0.88l1.522-7.173h-0.879L391.886,237.2L391.886,237.2z M395.172,231.971l-0.757,3.555
		c-0.095,0.446-0.097,0.802-0.005,1.069c0.163,0.498,0.617,0.747,1.361,0.747c0.479,0,0.916-0.137,1.31-0.41
		c0.198-0.137,0.376-0.305,0.532-0.503l-0.172,0.771h0.83l1.108-5.229h-0.879l-0.547,2.568c-0.106,0.511-0.252,0.913-0.435,1.206
		c-0.338,0.547-0.813,0.82-1.427,0.82c-0.426,0-0.684-0.156-0.771-0.469c-0.049-0.169-0.045-0.388,0.01-0.654l0.736-3.472h-0.896
		V231.971z M400.761,236.409c-0.153-0.146-0.204-0.347-0.149-0.601c0.072-0.335,0.26-0.58,0.562-0.732
		c0.18-0.091,0.434-0.158,0.762-0.2l0.547-0.068c0.166-0.02,0.34-0.052,0.519-0.098c0.181-0.046,0.329-0.103,0.449-0.171
		l-0.146,0.708c-0.117,0.54-0.445,0.929-0.981,1.167c-0.322,0.143-0.638,0.215-0.947,0.215
		C401.119,236.629,400.915,236.556,400.761,236.409L400.761,236.409z M401.682,234.207c-0.505,0.062-0.938,0.226-1.297,0.493
		c-0.359,0.267-0.592,0.643-0.695,1.128c-0.094,0.442-0.02,0.811,0.228,1.106c0.246,0.294,0.61,0.442,1.097,0.442
		c0.403,0,0.791-0.086,1.161-0.259c0.371-0.173,0.673-0.376,0.903-0.61c-0.016,0.208,0,0.369,0.049,0.483
		c0.092,0.215,0.288,0.322,0.591,0.322c0.124,0,0.224-0.005,0.296-0.015c0.073-0.01,0.182-0.034,0.324-0.073l0.143-0.649
		c-0.06,0.01-0.112,0.017-0.164,0.022c-0.051,0.005-0.096,0.007-0.135,0.007c-0.119,0-0.191-0.028-0.217-0.083
		c-0.023-0.056-0.027-0.129-0.008-0.22l0.641-3.013c0.104-0.495-0.011-0.859-0.343-1.094c-0.332-0.235-0.806-0.352-1.421-0.352
		c-0.529,0-1.023,0.126-1.479,0.378c-0.455,0.252-0.76,0.701-0.914,1.345h0.82c0.088-0.271,0.2-0.474,0.338-0.61
		c0.243-0.248,0.596-0.371,1.055-0.371c0.396,0,0.688,0.067,0.873,0.203c0.187,0.135,0.246,0.352,0.182,0.652
		c-0.029,0.146-0.07,0.259-0.127,0.337c-0.102,0.143-0.255,0.228-0.464,0.254L401.682,234.207L401.682,234.207z M406.49,231.971
		h-0.708l-0.151,0.718h0.708l-0.737,3.462c-0.07,0.335-0.056,0.608,0.047,0.818c0.104,0.21,0.358,0.315,0.77,0.315
		c0.127,0,0.247-0.007,0.359-0.02c0.111-0.013,0.222-0.034,0.328-0.063l0.146-0.693c-0.068,0.006-0.127,0.01-0.176,0.012
		c-0.049,0.001-0.094,0.002-0.137,0.002c-0.159,0-0.271-0.018-0.332-0.054c-0.11-0.062-0.146-0.184-0.107-0.366l0.729-3.413h0.834
		l0.151-0.718h-0.835l0.312-1.46h-0.889L406.49,231.971L406.49,231.971z M407.984,237.2h0.894l1.104-5.205h-0.895L407.984,237.2
		L407.984,237.2z M409.293,231.023h0.895l0.215-0.996h-0.895L409.293,231.023L409.293,231.023z M413.739,235.972
		c-0.312,0.441-0.759,0.662-1.341,0.662c-0.53,0-0.879-0.186-1.043-0.557s-0.188-0.835-0.07-1.392
		c0.124-0.58,0.352-1.074,0.682-1.484c0.33-0.41,0.764-0.615,1.301-0.615c0.605,0,0.981,0.241,1.129,0.723
		c0.092,0.306,0.084,0.703-0.021,1.191C414.264,235.04,414.05,235.531,413.739,235.972L413.739,235.972z M415.023,232.493
		c-0.369-0.449-0.893-0.674-1.565-0.674c-0.752,0-1.406,0.26-1.963,0.781c-0.558,0.521-0.929,1.221-1.118,2.1
		c-0.172,0.82-0.1,1.474,0.221,1.96c0.318,0.486,0.838,0.73,1.557,0.73c0.863,0,1.559-0.275,2.086-0.825
		c0.527-0.55,0.881-1.247,1.06-2.09C415.484,233.603,415.393,232.942,415.023,232.493L415.023,232.493z M415.768,237.2h0.879
		l0.582-2.739c0.071-0.342,0.148-0.605,0.231-0.789s0.216-0.362,0.397-0.535c0.229-0.215,0.471-0.358,0.728-0.43
		c0.144-0.042,0.319-0.063,0.526-0.063c0.41,0,0.66,0.163,0.748,0.488c0.053,0.195,0.043,0.452-0.024,0.771l-0.698,3.296h0.895
		l0.713-3.354c0.111-0.527,0.124-0.933,0.039-1.216c-0.148-0.518-0.596-0.776-1.338-0.776c-0.338,0-0.659,0.066-0.965,0.2
		c-0.305,0.133-0.612,0.354-0.926,0.659l0.156-0.742h-0.835L415.768,237.2L415.768,237.2z"/>
	<path d="M332.296,241.91c-0.812,0.953-1.362,1.67-1.66,2.148c-0.462,0.752-0.796,1.608-1.001,2.572
		c-0.052,0.258-0.091,0.527-0.117,0.811c-0.045,0.548-0.026,1.062,0.055,1.543c0.059,0.353,0.123,0.631,0.193,0.836
		c0.069,0.205,0.264,0.679,0.582,1.421h0.592c-0.287-0.905-0.461-1.599-0.522-2.08c-0.099-0.781-0.045-1.644,0.155-2.588
		c0.199-0.935,0.488-1.759,0.869-2.472c0.254-0.469,0.742-1.199,1.465-2.191H332.296L332.296,241.91z M336.71,244.114
		c-0.312-0.175-0.653-0.261-1.024-0.261c-0.735,0-1.388,0.262-1.953,0.785c-0.566,0.524-0.938,1.206-1.119,2.047
		c-0.182,0.853-0.098,1.516,0.255,1.988c0.352,0.473,0.854,0.711,1.504,0.711c0.269,0,0.513-0.025,0.737-0.078
		c0.414-0.092,0.781-0.267,1.104-0.527c0.191-0.148,0.377-0.342,0.555-0.578c0.178-0.235,0.299-0.449,0.363-0.643h-0.863
		c-0.113,0.231-0.27,0.436-0.465,0.61c-0.335,0.304-0.732,0.454-1.191,0.454c-0.49,0-0.819-0.16-0.987-0.48
		s-0.203-0.746-0.104-1.276h3.832c0.114-0.527,0.17-0.911,0.166-1.152c0.018-0.353-0.035-0.659-0.156-0.923
		C337.239,244.514,337.021,244.289,336.71,244.114L336.71,244.114z M333.688,246.168c0.114-0.449,0.34-0.818,0.674-1.111
		c0.337-0.291,0.705-0.437,1.109-0.437c0.562,0,0.92,0.212,1.068,0.635c0.082,0.228,0.1,0.532,0.054,0.913H333.688L333.688,246.168z
		 M337.936,249.2h0.879l0.582-2.739c0.071-0.342,0.148-0.604,0.231-0.789c0.083-0.184,0.216-0.361,0.397-0.533
		c0.229-0.216,0.471-0.359,0.728-0.431c0.144-0.042,0.319-0.063,0.526-0.063c0.41,0,0.66,0.162,0.748,0.488
		c0.053,0.195,0.043,0.452-0.024,0.771l-0.698,3.296h0.895l0.713-3.354c0.111-0.527,0.124-0.933,0.039-1.216
		c-0.148-0.519-0.596-0.776-1.338-0.776c-0.338,0-0.659,0.066-0.965,0.201c-0.305,0.133-0.612,0.353-0.926,0.658l0.156-0.742h-0.835
		L337.936,249.2L337.936,249.2z M347.364,243.971l-0.757,3.555c-0.094,0.445-0.096,0.804-0.006,1.069
		c0.164,0.498,0.617,0.747,1.362,0.747c0.479,0,0.915-0.137,1.31-0.41c0.199-0.137,0.375-0.305,0.531-0.503l-0.171,0.771h0.83
		l1.108-5.229h-0.879l-0.547,2.568c-0.107,0.511-0.252,0.913-0.436,1.206c-0.338,0.547-0.812,0.819-1.426,0.819
		c-0.426,0-0.684-0.155-0.771-0.469c-0.049-0.169-0.045-0.388,0.01-0.654l0.738-3.472L347.364,243.971L347.364,243.971z
		 M353.121,243.971h-0.708l-0.151,0.719h0.709l-0.738,3.461c-0.07,0.336-0.056,0.607,0.047,0.817c0.104,0.21,0.359,0.315,0.77,0.315
		c0.127,0,0.247-0.008,0.359-0.02c0.111-0.015,0.222-0.035,0.328-0.063l0.146-0.693c-0.068,0.007-0.127,0.011-0.176,0.013
		s-0.094,0.002-0.137,0.002c-0.159,0-0.271-0.018-0.332-0.054c-0.11-0.062-0.146-0.185-0.107-0.366l0.729-3.412h0.834l0.152-0.719
		h-0.836l0.312-1.46h-0.889L353.121,243.971L353.121,243.971z M354.615,249.2h0.894l1.104-5.205h-0.895L354.615,249.2L354.615,249.2
		z M355.924,243.023h0.895l0.215-0.996h-0.895L355.924,243.023L355.924,243.023z M356.861,249.2h0.879l1.523-7.173h-0.88
		L356.861,249.2L356.861,249.2z M359.059,249.2h0.895l1.104-5.205h-0.894L359.059,249.2L359.059,249.2z M360.367,243.023h0.895
		l0.215-0.996h-0.895L360.367,243.023L360.367,243.023z M361.305,247.561c-0.088,0.521-0.007,0.957,0.242,1.311
		s0.764,0.529,1.54,0.529c0.724,0,1.297-0.17,1.722-0.508c0.426-0.338,0.687-0.74,0.783-1.205c0.104-0.481,0.01-0.836-0.283-1.061
		c-0.186-0.145-0.576-0.291-1.177-0.443l-0.552-0.143c-0.24-0.062-0.418-0.134-0.532-0.215c-0.194-0.137-0.269-0.319-0.22-0.547
		c0.046-0.209,0.167-0.377,0.363-0.504c0.197-0.127,0.461-0.189,0.793-0.189c0.498,0,0.824,0.115,0.978,0.348
		c0.093,0.162,0.124,0.342,0.099,0.541h0.83c0.077-0.338,0.038-0.654-0.117-0.947c-0.25-0.463-0.771-0.692-1.559-0.692
		c-0.602,0-1.113,0.151-1.535,0.459c-0.422,0.306-0.685,0.706-0.789,1.201c-0.091,0.42,0.028,0.748,0.356,0.985
		c0.183,0.138,0.485,0.261,0.907,0.371l0.66,0.176c0.354,0.095,0.588,0.179,0.697,0.25c0.176,0.117,0.239,0.287,0.19,0.513
		c-0.062,0.296-0.231,0.515-0.511,0.655c-0.278,0.142-0.58,0.214-0.905,0.214c-0.548,0-0.899-0.142-1.06-0.425
		c-0.089-0.156-0.113-0.381-0.078-0.674H361.305L361.305,247.561z M367.396,248.409c-0.154-0.146-0.205-0.347-0.149-0.601
		c0.071-0.336,0.259-0.58,0.562-0.732c0.181-0.092,0.435-0.158,0.762-0.2l0.548-0.067c0.166-0.021,0.339-0.053,0.519-0.099
		s0.328-0.103,0.448-0.171l-0.146,0.708c-0.117,0.54-0.444,0.929-0.981,1.167c-0.321,0.143-0.638,0.215-0.946,0.215
		C367.755,248.629,367.551,248.557,367.396,248.409L367.396,248.409z M368.316,246.207c-0.504,0.062-0.938,0.227-1.297,0.493
		c-0.358,0.266-0.592,0.643-0.695,1.128c-0.094,0.441-0.02,0.812,0.228,1.105c0.246,0.295,0.611,0.441,1.097,0.441
		c0.403,0,0.791-0.087,1.162-0.259c0.371-0.173,0.672-0.376,0.902-0.61c-0.016,0.208,0,0.369,0.049,0.483
		c0.092,0.215,0.288,0.321,0.592,0.321c0.123,0,0.223-0.004,0.295-0.015c0.074-0.01,0.183-0.034,0.324-0.073l0.143-0.648
		c-0.059,0.01-0.112,0.017-0.163,0.021c-0.052,0.004-0.097,0.008-0.136,0.008c-0.119,0-0.191-0.028-0.217-0.084
		c-0.023-0.056-0.026-0.129-0.008-0.22l0.641-3.013c0.104-0.495-0.01-0.859-0.342-1.094c-0.332-0.235-0.807-0.353-1.422-0.353
		c-0.529,0-1.023,0.126-1.479,0.378c-0.455,0.254-0.76,0.701-0.913,1.346h0.819c0.088-0.271,0.201-0.474,0.338-0.609
		c0.244-0.248,0.596-0.371,1.055-0.371c0.396,0,0.688,0.066,0.874,0.202s0.246,0.353,0.181,0.651
		c-0.029,0.146-0.07,0.26-0.127,0.338c-0.101,0.143-0.255,0.228-0.464,0.254L368.316,246.207L368.316,246.207z M371.842,249.2h0.879
		l0.581-2.739c0.072-0.342,0.149-0.604,0.232-0.789c0.083-0.184,0.216-0.361,0.397-0.533c0.229-0.216,0.471-0.359,0.728-0.431
		c0.144-0.042,0.319-0.063,0.526-0.063c0.41,0,0.66,0.162,0.748,0.488c0.053,0.195,0.043,0.452-0.024,0.771l-0.698,3.296h0.895
		l0.713-3.354c0.111-0.527,0.123-0.933,0.039-1.216c-0.149-0.519-0.596-0.776-1.338-0.776c-0.338,0-0.66,0.066-0.965,0.201
		c-0.305,0.133-0.613,0.353-0.926,0.658l0.156-0.742h-0.835L371.842,249.2L371.842,249.2z M378.688,243.971h-0.707l-0.151,0.719
		h0.708l-0.737,3.461c-0.071,0.336-0.056,0.607,0.048,0.817c0.103,0.21,0.357,0.315,0.769,0.315c0.127,0,0.247-0.008,0.358-0.02
		c0.112-0.015,0.223-0.035,0.33-0.063l0.146-0.693c-0.068,0.007-0.127,0.011-0.177,0.013c-0.049,0.002-0.094,0.002-0.137,0.002
		c-0.158,0-0.27-0.018-0.332-0.054c-0.109-0.062-0.146-0.185-0.106-0.366l0.728-3.412h0.836l0.15-0.719h-0.835l0.312-1.46H379
		L378.688,243.971L378.688,243.971z M382.984,249.2h0.879l1.523-7.173h-0.88L382.984,249.2L382.984,249.2z M389.518,244.114
		c-0.312-0.175-0.653-0.261-1.024-0.261c-0.735,0-1.388,0.262-1.953,0.785c-0.565,0.524-0.938,1.206-1.118,2.047
		c-0.182,0.853-0.098,1.516,0.254,1.988s0.854,0.711,1.504,0.711c0.269,0,0.514-0.025,0.737-0.078
		c0.414-0.092,0.781-0.267,1.104-0.527c0.191-0.148,0.377-0.342,0.555-0.578c0.178-0.235,0.299-0.449,0.363-0.643h-0.864
		c-0.113,0.231-0.269,0.436-0.464,0.61c-0.336,0.304-0.732,0.454-1.191,0.454c-0.49,0-0.82-0.16-0.988-0.48
		s-0.203-0.746-0.104-1.276h3.833c0.113-0.527,0.17-0.911,0.166-1.152c0.017-0.353-0.035-0.659-0.156-0.923
		C390.047,244.514,389.83,244.289,389.518,244.114L389.518,244.114z M386.495,246.168c0.114-0.449,0.339-0.818,0.674-1.111
		c0.336-0.291,0.705-0.437,1.108-0.437c0.562,0,0.92,0.212,1.068,0.635c0.082,0.228,0.1,0.532,0.055,0.913H386.495L386.495,246.168z
		 M398.025,244.249c-0.308-0.286-0.756-0.431-1.346-0.431c-0.688,0-1.312,0.256-1.867,0.768c-0.555,0.512-0.931,1.227-1.125,2.145
		c-0.16,0.748-0.088,1.373,0.213,1.871c0.301,0.5,0.793,0.75,1.477,0.75c0.609,0,1.143-0.16,1.602-0.48s0.812-0.827,1.056-1.521
		h-0.854c-0.162,0.387-0.373,0.692-0.635,0.916c-0.26,0.223-0.572,0.334-0.938,0.334c-0.476,0-0.787-0.18-0.934-0.537
		s-0.162-0.799-0.049-1.322c0.111-0.521,0.281-0.959,0.513-1.313c0.358-0.547,0.817-0.819,1.378-0.819
		c0.409,0,0.686,0.105,0.824,0.318c0.141,0.215,0.202,0.481,0.186,0.805h0.854C398.452,245.027,398.334,244.535,398.025,244.249
		L398.025,244.249z M402.055,247.973c-0.311,0.44-0.758,0.661-1.341,0.661c-0.53,0-0.878-0.186-1.042-0.557s-0.188-0.835-0.07-1.392
		c0.123-0.58,0.352-1.074,0.682-1.484s0.764-0.615,1.301-0.615c0.605,0,0.98,0.24,1.128,0.723c0.093,0.307,0.085,0.703-0.021,1.191
		C402.578,247.04,402.365,247.531,402.055,247.973L402.055,247.973z M403.339,244.493c-0.368-0.449-0.892-0.675-1.565-0.675
		c-0.752,0-1.405,0.262-1.963,0.781c-0.557,0.521-0.929,1.221-1.117,2.101c-0.172,0.819-0.1,1.474,0.22,1.96s0.839,0.73,1.558,0.73
		c0.863,0,1.559-0.275,2.086-0.826c0.526-0.549,0.881-1.246,1.06-2.09C403.8,245.604,403.708,244.941,403.339,244.493
		L403.339,244.493z M404.083,249.2h0.879l0.581-2.739c0.072-0.342,0.148-0.604,0.232-0.789c0.082-0.184,0.216-0.361,0.396-0.533
		c0.229-0.216,0.471-0.359,0.729-0.431c0.144-0.042,0.318-0.063,0.526-0.063c0.41,0,0.659,0.162,0.747,0.488
		c0.053,0.195,0.044,0.452-0.023,0.771l-0.698,3.296h0.894l0.713-3.354c0.111-0.527,0.125-0.933,0.039-1.216
		c-0.148-0.519-0.596-0.776-1.338-0.776c-0.338,0-0.658,0.066-0.964,0.201c-0.305,0.133-0.612,0.353-0.926,0.658l0.155-0.742h-0.834
		L404.083,249.2L404.083,249.2z M410.93,243.971h-0.709l-0.15,0.719h0.707l-0.736,3.461c-0.071,0.336-0.057,0.607,0.047,0.817
		s0.357,0.315,0.77,0.315c0.127,0,0.246-0.008,0.358-0.02c0.112-0.015,0.222-0.035,0.329-0.063l0.146-0.693
		c-0.068,0.007-0.127,0.011-0.176,0.013c-0.05,0.002-0.095,0.002-0.138,0.002c-0.159,0-0.271-0.018-0.332-0.054
		c-0.11-0.062-0.146-0.185-0.106-0.366l0.728-3.412h0.835l0.15-0.719h-0.834l0.312-1.46h-0.889L410.93,243.971L410.93,243.971z
		 M416.759,244.114c-0.312-0.175-0.653-0.261-1.024-0.261c-0.735,0-1.387,0.262-1.953,0.785c-0.566,0.524-0.938,1.206-1.118,2.047
		c-0.183,0.853-0.099,1.516,0.254,1.988s0.854,0.711,1.504,0.711c0.269,0,0.513-0.025,0.737-0.078
		c0.414-0.092,0.781-0.267,1.104-0.527c0.192-0.148,0.377-0.342,0.555-0.578c0.179-0.235,0.3-0.449,0.363-0.643h-0.863
		c-0.113,0.231-0.27,0.436-0.465,0.61c-0.334,0.304-0.731,0.454-1.19,0.454c-0.491,0-0.82-0.16-0.988-0.48s-0.203-0.746-0.104-1.276
		h3.832c0.115-0.527,0.17-0.911,0.166-1.152c0.018-0.353-0.035-0.659-0.155-0.923C417.288,244.514,417.07,244.289,416.759,244.114
		L416.759,244.114z M413.736,246.168c0.113-0.449,0.339-0.818,0.674-1.111c0.336-0.291,0.705-0.437,1.107-0.437
		c0.563,0,0.92,0.212,1.069,0.635c0.082,0.228,0.101,0.532,0.054,0.913H413.736L413.736,246.168z M419.801,246.52l-2.406,2.682
		h1.112l1.675-1.963l0.885,1.963h1.123l-1.274-2.682l2.3-2.523l-1.063-0.023l-1.606,1.84l-0.811-1.84h-1.139L419.801,246.52
		L419.801,246.52z M424.269,243.971h-0.708l-0.15,0.719h0.708l-0.737,3.461c-0.071,0.336-0.056,0.607,0.047,0.817
		c0.104,0.21,0.358,0.315,0.77,0.315c0.127,0,0.247-0.008,0.358-0.02c0.112-0.015,0.223-0.035,0.329-0.063l0.146-0.693
		c-0.068,0.007-0.127,0.011-0.176,0.013c-0.05,0.002-0.095,0.002-0.138,0.002c-0.159,0-0.27-0.018-0.332-0.054
		c-0.109-0.062-0.146-0.185-0.106-0.366l0.728-3.412h0.835l0.151-0.719h-0.835l0.312-1.46h-0.889L424.269,243.971L424.269,243.971z
		 M430.099,244.114c-0.312-0.175-0.653-0.261-1.024-0.261c-0.735,0-1.387,0.262-1.953,0.785c-0.566,0.524-0.938,1.206-1.118,2.047
		c-0.182,0.853-0.098,1.516,0.254,1.988c0.353,0.473,0.854,0.711,1.504,0.711c0.269,0,0.514-0.025,0.737-0.078
		c0.414-0.092,0.781-0.267,1.104-0.527c0.192-0.148,0.377-0.342,0.556-0.578c0.178-0.235,0.299-0.449,0.362-0.643h-0.863
		c-0.113,0.231-0.27,0.436-0.464,0.61c-0.335,0.304-0.732,0.454-1.191,0.454c-0.491,0-0.82-0.16-0.988-0.48
		s-0.203-0.746-0.104-1.276h3.833c0.114-0.527,0.17-0.911,0.166-1.152c0.017-0.353-0.035-0.659-0.156-0.923
		C430.628,244.514,430.411,244.289,430.099,244.114L430.099,244.114z M427.076,246.168c0.114-0.449,0.339-0.818,0.674-1.111
		c0.336-0.291,0.705-0.437,1.108-0.437c0.562,0,0.92,0.212,1.068,0.635c0.082,0.228,0.101,0.532,0.055,0.913H427.076
		L427.076,246.168z M431.202,251.241c0.805-0.944,1.354-1.659,1.649-2.144c0.467-0.757,0.802-1.615,1.007-2.578
		c0.077-0.369,0.127-0.75,0.145-1.147s-0.008-0.8-0.076-1.206c-0.055-0.329-0.114-0.587-0.181-0.773
		c-0.064-0.188-0.264-0.682-0.596-1.481h-0.592c0.287,0.903,0.459,1.598,0.519,2.08c0.098,0.78,0.048,1.643-0.151,2.583
		c-0.201,0.939-0.489,1.761-0.864,2.461c-0.246,0.462-0.734,1.197-1.465,2.207L431.202,251.241L431.202,251.241z"/>
	<path d="M384.669,297.359c-0.088,0.521-0.007,0.958,0.241,1.311c0.25,0.354,0.763,0.53,1.541,0.53c0.723,0,1.297-0.169,1.721-0.508
		c0.426-0.339,0.688-0.74,0.784-1.206c0.104-0.481,0.01-0.836-0.283-1.061c-0.187-0.144-0.577-0.291-1.177-0.443l-0.553-0.143
		c-0.24-0.062-0.418-0.134-0.531-0.215c-0.195-0.137-0.27-0.318-0.221-0.547c0.047-0.208,0.168-0.376,0.365-0.503
		c0.195-0.127,0.461-0.19,0.793-0.19c0.498,0,0.822,0.115,0.977,0.348c0.091,0.162,0.124,0.344,0.098,0.541h0.83
		c0.078-0.338,0.039-0.653-0.117-0.946c-0.251-0.462-0.77-0.693-1.558-0.693c-0.603,0-1.114,0.153-1.536,0.46
		c-0.421,0.305-0.684,0.705-0.788,1.2c-0.091,0.42,0.026,0.749,0.356,0.986c0.183,0.137,0.484,0.261,0.908,0.37l0.658,0.177
		c0.354,0.095,0.588,0.178,0.698,0.249c0.176,0.117,0.239,0.288,0.19,0.513c-0.062,0.296-0.231,0.516-0.512,0.656
		c-0.277,0.142-0.58,0.213-0.904,0.213c-0.547,0-0.9-0.142-1.061-0.425c-0.088-0.156-0.113-0.381-0.078-0.674H384.669
		L384.669,297.359z M393.98,293.914c-0.312-0.174-0.654-0.262-1.025-0.262c-0.734,0-1.387,0.263-1.953,0.787
		c-0.566,0.523-0.939,1.205-1.118,2.045c-0.183,0.854-0.098,1.517,0.255,1.989c0.352,0.474,0.853,0.711,1.504,0.711
		c0.267,0,0.512-0.025,0.736-0.077c0.413-0.092,0.781-0.268,1.104-0.527c0.192-0.149,0.377-0.343,0.556-0.579
		c0.177-0.235,0.298-0.449,0.362-0.642h-0.863c-0.114,0.23-0.27,0.435-0.464,0.609c-0.335,0.304-0.732,0.454-1.191,0.454
		c-0.491,0-0.821-0.16-0.987-0.48c-0.168-0.32-0.203-0.747-0.105-1.276h3.833c0.114-0.527,0.169-0.911,0.166-1.152
		c0.017-0.352-0.036-0.658-0.156-0.923C394.51,294.314,394.293,294.089,393.98,293.914L393.98,293.914z M390.958,295.968
		c0.114-0.448,0.339-0.819,0.674-1.11s0.705-0.438,1.108-0.438c0.562,0,0.92,0.212,1.068,0.635c0.082,0.229,0.101,0.532,0.055,0.913
		H390.958L390.958,295.968z M393.219,291.666l-1.025,1.411h0.675l1.437-1.411H393.219L393.219,291.666z M395.23,299h0.879
		l0.635-3.008c0.081-0.371,0.271-0.699,0.568-0.984c0.299-0.283,0.668-0.427,1.11-0.427c0.052,0,0.101,0.002,0.142,0.005
		c0.043,0.003,0.09,0.01,0.143,0.02l0.195-0.928c-0.092-0.01-0.156-0.017-0.195-0.02c-0.039-0.004-0.066-0.006-0.083-0.006
		c-0.349,0-0.683,0.127-1.003,0.379c-0.321,0.253-0.533,0.467-0.639,0.643l0.19-0.902h-0.835L395.23,299L395.23,299z M398.536,299
		h0.894l1.104-5.205h-0.894L398.536,299L398.536,299z M399.846,292.823h0.894l0.215-0.996h-0.894L399.846,292.823L399.846,292.823z
		 M401.873,298.209c-0.154-0.146-0.204-0.347-0.148-0.601c0.071-0.335,0.26-0.579,0.562-0.732c0.179-0.091,0.434-0.158,0.762-0.2
		l0.547-0.068c0.166-0.02,0.34-0.051,0.518-0.098c0.18-0.046,0.33-0.103,0.449-0.171l-0.146,0.708
		c-0.117,0.54-0.444,0.93-0.981,1.167c-0.321,0.145-0.638,0.215-0.946,0.215C402.232,298.429,402.027,298.355,401.873,298.209
		L401.873,298.209z M402.794,296.007c-0.505,0.062-0.937,0.228-1.296,0.493c-0.359,0.268-0.592,0.643-0.696,1.128
		c-0.095,0.442-0.019,0.812,0.228,1.105c0.246,0.295,0.611,0.441,1.097,0.441c0.403,0,0.791-0.086,1.162-0.259
		s0.672-0.376,0.903-0.61c-0.018,0.208,0,0.369,0.049,0.483c0.091,0.215,0.287,0.322,0.591,0.322c0.124,0,0.224-0.005,0.295-0.016
		c0.074-0.01,0.183-0.034,0.325-0.072l0.143-0.649c-0.06,0.01-0.113,0.017-0.164,0.021c-0.051,0.006-0.096,0.009-0.135,0.009
		c-0.12,0-0.191-0.027-0.218-0.083c-0.022-0.057-0.026-0.129-0.007-0.221l0.64-3.013c0.104-0.495-0.01-0.858-0.342-1.094
		s-0.806-0.353-1.421-0.353c-0.53,0-1.023,0.127-1.479,0.379c-0.457,0.252-0.761,0.7-0.914,1.346h0.82
		c0.088-0.271,0.2-0.475,0.337-0.61c0.244-0.247,0.597-0.371,1.056-0.371c0.396,0,0.688,0.067,0.873,0.202
		c0.187,0.137,0.246,0.354,0.182,0.652c-0.029,0.146-0.071,0.259-0.127,0.337c-0.102,0.144-0.256,0.228-0.465,0.254L402.794,296.007
		L402.794,296.007z M406.344,299h0.879l1.523-7.173h-0.879L406.344,299L406.344,299z M408.541,299h0.895l1.104-5.205h-0.895
		L408.541,299L408.541,299z M409.85,292.823h0.895l0.215-0.996h-0.895L409.85,292.823L409.85,292.823z M410.787,297.359
		c-0.088,0.521-0.008,0.958,0.242,1.311c0.248,0.354,0.762,0.53,1.539,0.53c0.724,0,1.297-0.169,1.723-0.508
		c0.424-0.339,0.686-0.74,0.783-1.206c0.104-0.481,0.01-0.836-0.283-1.061c-0.186-0.144-0.578-0.291-1.178-0.443l-0.551-0.143
		c-0.242-0.062-0.418-0.134-0.533-0.215c-0.194-0.137-0.269-0.318-0.219-0.547c0.045-0.208,0.166-0.376,0.362-0.503
		c0.197-0.127,0.462-0.19,0.794-0.19c0.498,0,0.823,0.115,0.977,0.348c0.092,0.162,0.125,0.344,0.099,0.541h0.83
		c0.078-0.338,0.039-0.653-0.117-0.946c-0.251-0.462-0.771-0.693-1.558-0.693c-0.604,0-1.114,0.153-1.535,0.46
		c-0.422,0.305-0.686,0.705-0.789,1.2c-0.092,0.42,0.027,0.749,0.355,0.986c0.184,0.137,0.485,0.261,0.908,0.37l0.659,0.177
		c0.354,0.095,0.588,0.178,0.698,0.249c0.176,0.117,0.238,0.288,0.189,0.513c-0.062,0.296-0.231,0.516-0.51,0.656
		c-0.279,0.142-0.581,0.213-0.906,0.213c-0.547,0-0.9-0.142-1.06-0.425c-0.088-0.156-0.114-0.381-0.078-0.674H410.787
		L410.787,297.359z M416.879,298.209c-0.154-0.146-0.205-0.347-0.148-0.601c0.07-0.335,0.259-0.579,0.562-0.732
		c0.179-0.091,0.433-0.158,0.763-0.2l0.547-0.068c0.166-0.02,0.338-0.051,0.518-0.098c0.179-0.046,0.329-0.103,0.449-0.171
		l-0.146,0.708c-0.117,0.54-0.443,0.93-0.98,1.167c-0.322,0.145-0.639,0.215-0.947,0.215
		C417.236,298.429,417.033,298.355,416.879,298.209L416.879,298.209z M417.799,296.007c-0.505,0.062-0.938,0.228-1.297,0.493
		c-0.359,0.268-0.591,0.643-0.695,1.128c-0.095,0.442-0.019,0.812,0.228,1.105c0.245,0.295,0.61,0.441,1.097,0.441
		c0.403,0,0.791-0.086,1.162-0.259s0.672-0.376,0.902-0.61c-0.016,0.208,0,0.369,0.05,0.483c0.091,0.215,0.288,0.322,0.591,0.322
		c0.124,0,0.223-0.005,0.296-0.016c0.072-0.01,0.181-0.034,0.324-0.072l0.142-0.649c-0.059,0.01-0.113,0.017-0.162,0.021
		c-0.052,0.006-0.097,0.009-0.136,0.009c-0.12,0-0.192-0.027-0.217-0.083c-0.024-0.057-0.026-0.129-0.008-0.221l0.64-3.013
		c0.104-0.495-0.01-0.858-0.342-1.094s-0.807-0.353-1.421-0.353c-0.53,0-1.022,0.127-1.479,0.379c-0.455,0.252-0.76,0.7-0.912,1.346
		h0.819c0.088-0.271,0.2-0.475,0.337-0.61c0.244-0.247,0.596-0.371,1.055-0.371c0.397,0,0.688,0.067,0.875,0.202
		c0.186,0.137,0.246,0.354,0.181,0.652c-0.029,0.146-0.071,0.259-0.127,0.337c-0.101,0.144-0.257,0.228-0.464,0.254L417.799,296.007
		L417.799,296.007z M422.608,293.771H421.9l-0.151,0.717h0.708l-0.737,3.463c-0.07,0.335-0.056,0.606,0.046,0.816
		c0.104,0.21,0.359,0.315,0.771,0.315c0.127,0,0.246-0.007,0.358-0.021c0.111-0.013,0.223-0.033,0.329-0.062l0.146-0.693
		c-0.068,0.008-0.127,0.012-0.176,0.013c-0.05,0.002-0.096,0.003-0.138,0.003c-0.158,0-0.271-0.019-0.332-0.055
		c-0.109-0.062-0.146-0.184-0.106-0.365l0.728-3.413h0.835l0.151-0.718h-0.835l0.312-1.461h-0.889L422.608,293.771L422.608,293.771z
		 M424.103,299h0.895l1.104-5.205h-0.894L424.103,299L424.103,299z M425.411,292.823h0.894l0.215-0.996h-0.894L425.411,292.823
		L425.411,292.823z M429.857,297.771c-0.312,0.44-0.759,0.661-1.342,0.661c-0.529,0-0.878-0.186-1.042-0.557
		c-0.165-0.371-0.188-0.835-0.07-1.392c0.124-0.58,0.351-1.074,0.681-1.484c0.331-0.41,0.765-0.615,1.302-0.615
		c0.605,0,0.981,0.241,1.128,0.723c0.092,0.307,0.085,0.703-0.02,1.191C430.38,296.84,430.168,297.331,429.857,297.771
		L429.857,297.771z M431.141,294.293c-0.368-0.449-0.891-0.674-1.563-0.674c-0.752,0-1.406,0.261-1.963,0.781
		c-0.558,0.52-0.931,1.221-1.118,2.1c-0.173,0.82-0.101,1.474,0.22,1.96c0.319,0.487,0.838,0.73,1.559,0.73
		c0.861,0,1.558-0.275,2.085-0.825c0.526-0.55,0.881-1.247,1.06-2.09C431.603,295.402,431.511,294.742,431.141,294.293
		L431.141,294.293z M431.886,299h0.879l0.581-2.739c0.071-0.342,0.148-0.604,0.232-0.788c0.082-0.185,0.215-0.361,0.396-0.535
		c0.229-0.215,0.472-0.357,0.729-0.43c0.144-0.042,0.318-0.062,0.527-0.062c0.409,0,0.658,0.162,0.746,0.488
		c0.053,0.194,0.045,0.451-0.023,0.771L435.255,299h0.895l0.713-3.354c0.109-0.527,0.124-0.934,0.039-1.217
		c-0.149-0.518-0.597-0.775-1.338-0.775c-0.34,0-0.66,0.066-0.966,0.199c-0.304,0.135-0.611,0.354-0.925,0.66l0.156-0.742h-0.835
		L431.886,299L431.886,299z"/>
	<text transform="matrix(1 0 0 1 484.5771 360)"><tspan x="0" y="0" font-family="'MyriadPro-Regular'" font-size="12">HTML</tspan><tspan x="0" y="14.4" font-family="'MyriadPro-Regular'" font-size="12">RDF</tspan><tspan x="0" y="28.8" font-family="'MyriadPro-Regular'" font-size="12">JSON</tspan><tspan x="0" y="43.2" font-family="'MyriadPro-Regular'" font-size="12">TXT</tspan></text>
</g>
</svg>
